<?xml version="1.0" encoding="UTF-8"?>
<svg id="svg2" width="900" height="900" xmlns="http://www.w3.org/2000/svg" xmlns:xlink="http://www.w3.org/1999/xlink">
 <defs id="defs4">
  <path id="a_top-1" d="m40 450a410 410 1 1 1 820 0"/>
  <path id="b_top-7" d="m100 450a350 350 1 1 1 700 0"/>
  <path id="c_top-4" d="m160 450a290 290 1 1 1 580 0"/>
  <path id="d_top-0" d="m220 450a230 230 1 1 1 460 0"/>
  <path id="e_top-9" d="m280 450a170 170 1 1 1 340 0"/>
  <path id="f_top-4" d="m340 450a110 110 1 1 1 220 0"/>
  <path id="f_bottom-8" d="m320 450a130 130 0 0 0 260 0"/>
  <path id="e_bottom-8" d="m260 450a190 190 0 0 0 380 0"/>
  <path id="d_bottom-2" d="m200 450a250 250 0 0 0 500 0"/>
  <path id="c_bottom-4" d="m140 450a310 310 0 0 0 620 0"/>
  <path id="b_bottom-5" d="m80 450a370 370 0 0 0 740 0"/>
  <path id="a_bottom-5" d="m20 450a430 430 0 0 0 860 0"/>
 </defs>
 <g id="g22" fill="none">
  <path id="a_top" d="m40 450a410 410 1 1 1 820 0"/>
  <path id="b_top" d="m100 450a350 350 1 1 1 700 0"/>
  <path id="c_top" d="m160 450a290 290 1 1 1 580 0"/>
  <path id="d_top" d="m220 450a230 230 1 1 1 460 0"/>
  <path id="e_top" d="m280 450a170 170 1 1 1 340 0"/>
  <path id="f_top" d="m340 450a110 110 1 1 1 220 0"/>
  <path id="a_bottom" d="m20 450a430 430 0 0 0 860 0"/>
  <path id="b_bottom" d="m80 450a370 370 0 0 0 740 0"/>
  <path id="c_bottom" d="m140 450a310 310 0 0 0 620 0"/>
  <path id="d_bottom" d="m200 450a250 250 0 0 0 500 0"/>
  <path id="e_bottom" d="m260 450a190 190 0 0 0 380 0"/>
  <path id="f_bottom" d="m320 450a130 130 0 0 0 260 0"/>
 </g>
 <g id="layer1">
  <circle id="circle8" cx="450" cy="450" r="450" fill="#f6e178"/>
  <circle id="circle10" cx="450" cy="450" r="390" fill="#f6a66b"/>
  <circle id="circle12" cx="450" cy="450" r="330" fill="#ea6f5f"/>
  <circle id="circle14" cx="450" cy="450" r="270" fill="#926699"/>
  <circle id="circle16" cx="450" cy="450" r="210" fill="#387db6"/>
  <circle id="circle18" cx="450" cy="450" r="150" fill="#50a77c"/>
  <circle id="circle20" cx="450" cy="450" r="90" fill="#fff"/>
 </g>
 <switch>
 <g id="layer2" font-family="FreeSans,DejaVu Sans,Liberation Sans,Arial" font-size="30" font-weight="bold" text-anchor="middle" requiredFeatures="http://www.w3.org/TR/SVG11/feature#Text">
  <text id="text38"><textPath id="textPath40" startOffset="50%" xlink:href="#a_top-1">PRAGMATICS</textPath></text>
  <text id="text42"><textPath id="textPath44" startOffset="50%" xlink:href="#b_top-7">SEMANTICS</textPath></text>
  <text id="text46"><textPath id="textPath48" startOffset="50%" xlink:href="#c_top-4">SYNTAX</textPath></text>
  <text id="text50"><textPath id="textPath52" startOffset="50%" xlink:href="#d_top-0">MORPHOLOGY</textPath></text>
  <text id="text54"><textPath id="textPath56" startOffset="50%" xlink:href="#e_top-9">PHONOLOGY</textPath></text>
  <text id="text58"><textPath id="textPath60" startOffset="50%" xlink:href="#f_top-4">PHONETICS</textPath></text>
  <text id="text62"><textPath id="textPath64" startOffset="50%" xlink:href="#f_bottom-8">speech sounds</textPath></text>
  <text id="text66"><textPath id="textPath68" startOffset="50%" xlink:href="#e_bottom-8">phonemes</textPath></text>
  <text id="text70"><textPath id="textPath72" startOffset="50%" xlink:href="#d_bottom-2">words</textPath></text>
  <text id="text74"><textPath id="textPath76" startOffset="50%" xlink:href="#c_bottom-4">phrases and sentences</textPath></text>
  <text id="text78"><textPath id="textPath80" startOffset="50%" xlink:href="#b_bottom-5">literal meaning of phrases and sentences</textPath></text>
  <text id="text82"><textPath id="textPath84" startOffset="50%" xlink:href="#a_bottom-5">meaning in context of discourse</textPath></text>
 </g>
 <path d="m352.22 51.777-4.718-20.95 6.788-1.5287q3.8584-.869 5.1011-.8184 1.9068.066 3.4771 1.3716 1.5703 1.3056 2.1335 3.8064.4345 1.9292.0303 3.4016t-1.3141 2.4657q-.91.9932-1.9699 1.4872-1.4472.6412-4.3196 1.288l-2.7581.6212 1.7797 7.9027zm.3102-18.358 1.3388 5.9449 2.315-.5214q2.5009-.5632 3.27-1.0818.7692-.5185 1.0903-1.3266.321-.808.1118-1.7369-.2574-1.1432-1.0965-1.735-.839-.592-1.9098-.546-.7895.0277-3.076.5426zm19.2798 14.04-3.6531-21.162 8.993-1.5524q3.3922-.5856 5.028-.2808 1.6358.3048 2.8113 1.6032t1.4995 3.175q.4112 2.3818-.7211 4.1752-1.1323 1.7935-3.8485 2.6786 1.5253.5691 2.5944 1.3805 1.069.8114 3.0254 3.0156l3.2965 3.6823-5.11.8821-3.884-4.0715q-2.0718-2.1843-2.7889-2.722-.7171-.5377-1.4367-.6587-.7195-.121-2.1918.133l-.8661.1496 1.525 8.8342zm2.1646-12.95 3.1612-.5457q3.0746-.5308 3.7948-.9227t1.0436-1.1018q.3234-.7099.159-1.6626-.1845-1.0682-.868-1.6265-.6836-.5584-1.7528-.5522-.5321.0176-3.1304.4661l-3.3345.5756zm38.4354 7.091-4.6838.5568-2.4377-4.6225-8.524 1.0133-1.1843 5.053-4.5674.543 5.7708-22.312 4.5529-.5412zm-8.9305-7.4943-3.879-7.5637-1.9395 8.2554zm20.7105-1.1967-.2295-3.6109 9.327-.5927.5425 8.5375q-1.276 1.402-3.7926 2.5675t-5.1626 1.3335q-3.3624.2136-5.9518-1.0382-2.5895-1.252-4.0135-3.7961t-1.62-5.6288q-.2128-3.3477 1.0253-6.0391 1.238-2.6914 3.8543-4.252 1.9934-1.1982 5.0634-1.3933 3.991-.2537 6.3414 1.2776t3.1813 4.4434l-4.247 1.0772q-.5534-1.55-1.8614-2.3843-1.308-.8343-3.1792-.7154-2.8361.1803-4.3957 2.0847t-1.3348 5.4423q.2425 3.8155 2.0595 5.6155t4.5654 1.6253q1.3596-.0864 2.6925-.7068 1.333-.6205 2.264-1.443l-.1727-2.719zm13.75 7.137-.0883-21.474 6.4892-.0267 3.9567 14.632 3.7922-14.664 6.5038-.0267.0883 21.474-4.0283.0165-.0695-16.904-4.1931 16.922-4.1748.0172-4.3176-16.887.0695 16.904zm44.42 1.103-4.7101-.2512-1.6125-4.971-8.5718-.4571-2.0298 4.7766-4.5931-.245 9.4962-20.999 4.5785.2442zm-7.5196-8.9093-2.5303-8.115-3.3207 7.803zm14.6296 9.6733 1.8192-17.749-6.3389-.6497.3704-3.614 16.976 1.7402-.3704 3.6139-6.3243-.6483-1.8192 17.749zm13.29 1.511 2.8808-21.281 4.2968.5817-2.8808 21.281zm23.27-4.351 3.9161 2.0287q-1.5508 3.2999-4.0568 4.5991-2.5061 1.2992-5.9127.711-4.215-.7275-6.4316-4.0758-2.2166-3.3482-1.3545-8.3427.912-5.2832 4.1448-7.7353t7.6788-1.6846q3.883.6703 5.9119 3.384 1.2093 1.6062 1.4924 4.2713l-4.4039.2803q-.0912-1.7104-1.1176-2.8687t-2.7297-1.4523q-2.3529-.4062-4.1096 1.0298t-2.4096 5.218q-.6927 4.0128.4567 5.9653t3.459 2.3512q1.7033.294 3.1172-.5768t2.3491-3.1026zm6.92 2.203 4.2058.5267q-.0951 2.1558.8222 3.3834.9172 1.2276 2.8465 1.6621 2.0436.4602 3.2743-.171 1.2308-.6313 1.4914-1.7888.1673-.7431-.151-1.363-.3185-.6197-1.3177-1.2501-.6852-.4246-3.1809-1.6773-3.2113-1.6091-4.3064-3.147-1.5398-2.1636-.9798-4.6502.3604-1.6005 1.5817-2.7895t3.093-1.5332q1.872-.3443 4.287.1996 3.9443.8883 5.5484 3.0663t1.054 5.0873l-4.2717-.7668q.092-1.676-.6417-2.5845-.7339-.9085-2.5202-1.3108-1.8435-.4151-3.0572.1073-.7811.3346-.9645 1.1492-.1674.7431.3423 1.4135.649.8519 3.5716 2.2758 2.9226 1.424 4.2263 2.536t1.8355 2.6505q.5319 1.5387.0845 3.5251-.4055 1.8006-1.7598 3.1473-1.3544 1.3467-3.3557 1.6993-2.0014.3526-4.7309-.262-3.9728-.8947-5.6885-3.2106-1.7158-2.3159-1.3385-5.9247zm-170.96 62.664 4.0225-1.3364q.8428 1.9865 2.1994 2.6992 1.3566.7127 3.2848.2738 2.0425-.465 2.8813-1.5648t.5754-2.2568q-.169-.7427-.7234-1.1649-.5543-.4222-1.7276-.5607-.8012-.088-3.5932-.1435-3.5912-.0688-5.242-.985-2.3216-1.2893-2.8874-3.7745-.3641-1.5997.2258-3.1988t2.131-2.716q1.541-1.117 3.9547-1.6665 3.9421-.8975 6.328.3772t3.1427 4.1371l-4.1855 1.1481q-.6388-1.5522-1.6924-2.056-1.0536-.5038-2.839-.0973-1.8425.4194-2.7128 1.4138-.5607.6384-.3754 1.4526.169.7427.9178 1.128.9527.4893 4.2036.5154 3.251.0261 4.9064.468 1.6555.4419 2.7983 1.6014t1.5948 3.1449q.4097 1.7997-.2324 3.5984-.6422 1.7987-2.2964 2.9791-1.6543 1.1803-4.3823 1.8014-3.9707.904-6.5167-.447t-3.7601-4.7702zm22.19 2.24-3.5681-21.176 15.702-2.6456.6036 3.5823-11.426 1.9252.791 4.6946 10.631-1.7913.6012 3.5679-10.631 1.7913.9711 5.7635 11.83-1.9934.6012 3.5679zm19.72-3.27-2.2041-21.361 6.455-.666 5.3794 14.171 2.3287-14.966 6.4696-.6676 2.2041 21.361-4.007.4135-1.735-16.815-2.5052 17.253-4.1528.4285-5.9606-16.379 1.735 16.815zm44.32-3.07-4.7137.1696-2.0492-4.8073-8.5784.3088-1.5959 4.9385-4.5966.1654 7.5866-21.762 4.582-.165zm-8.2838-8.2035-3.2436-7.8572-2.6119 8.0679zm10.6538 8.2575.5696-21.467 4.2173.1119 8.4056 14.569.3804-14.336 4.0269.1069-.5696 21.467-4.3491-.1154-8.2827-14.229-.3715 13.999zm26.44 1.156 1.4956-17.779-6.3496-.5342.3045-3.62 17.005 1.4306-.3045 3.62-6.335-.5329-1.4956 17.779zm13.31 1.29 2.6124-21.315 4.3037.5275-2.6124 21.315zm23.25-4.556 3.9289 2.0039q-1.5298 3.3097-4.0276 4.6247t-5.9081.7486q-4.2195-.7009-6.4574-4.035-2.2378-3.3341-1.4074-8.334.8785-5.2889 4.0957-7.7614 3.2172-2.4726 7.6679-1.7333 3.8872.6457 5.9332 3.3465 1.2194 1.5984 1.5195 4.2617l-4.402.3083q-.102-1.7098-1.1358-2.8615-1.0338-1.1517-2.7389-1.435-2.3554-.3913-4.103 1.0558-1.7475 1.447-2.3764 5.233-.6673 4.0173.4946 5.9625t3.4739 2.3292q1.7052.2832 3.1135-.5966t2.3294-3.1175zm6.99 2.184 4.2046.5365q-.1001 2.1556.8143 3.3853t2.8426 1.6687q2.0425.465 3.2747-.1634t1.4956-1.7853q.169-.7428-.1479-1.3632-.317-.6205-1.3147-1.2533-.6842-.4262-3.177-1.6847-3.2075-1.6166-4.299-3.157-1.5349-2.1672-.9691-4.6524.3642-1.5997 1.5882-2.7858t3.0966-1.526q1.8726-.34 4.2865.2096 3.942.8974 5.5412 3.0792 1.599 2.1818 1.0422 5.0898l-4.27-.7768q.096-1.6758-.6357-2.586-.7317-.9102-2.5171-1.3167-1.8425-.4194-3.0575.1002-.7818.3328-.9672 1.147-.169.7427.339 1.4142.6471.8534 3.5664 2.2841 2.9193 1.4308 4.2204 2.5457 1.301 1.115 1.8294 2.655.5283 1.54.0763 3.5252-.4097 1.7997-1.7672 3.1432t-3.3597 1.6915q-2.0022.348-4.7302-.273-3.9707-.904-5.681-3.2238-1.7104-2.3198-1.3247-5.9278zm-131.23 59.182 4.0822-1.1409q.746 2.0248 2.0668 2.8021 1.3207.7773 3.2678.4318 2.0625-.366 2.9534-1.424.8909-1.0582.6836-2.2265-.1331-.75-.6664-1.1984-.5334-.4484-1.6986-.6433-.7961-.1265-3.5821-.3165-3.5837-.2419-5.1884-1.2366-2.2568-1.3997-2.7021-3.9093-.2867-1.6154.3797-3.1842.6663-1.5688 2.2594-2.6102 1.593-1.0414 4.0306-1.474 3.9808-.7063 6.3025.682t2.9396 4.2836l-4.236.945q-.5633-1.5812-1.5914-2.1352-1.0281-.554-2.831-.234-1.8606.3301-2.7778 1.2814-.591.6106-.445 1.4328.133.75.8624 1.171.928.5346 4.1739.7174t4.8782.704 2.7179 1.7345 1.4413 3.218q.3224 1.8174-.4057 3.583t-2.4374 2.865q-1.7092 1.0992-4.464 1.588-4.0097.7114-6.4876-.7606t-3.5258-4.946zm27.67 2.73-.9636-8.9866-9.1473-11.527 5.054-.542 5.9307 7.909 4.0171-8.9755 4.9666-.5326-6.5215 13.237.9605 8.9574zm14.38-1.41-.746-21.462 4.2163-.1465 9.2819 14.027-.4982-14.332 4.026-.14.7459 21.462-4.348.1512-9.1384-13.695.4864 13.995zm26.47-.37.6217-17.831-6.3682-.222.1266-3.6306 17.055.5946-.1266 3.6306-6.3536-.2215-.6217 17.831zm32.76 2.58-4.6913-.4896-1.3585-5.0462-8.5376-.891-2.2692 4.6675-4.5748-.4774 10.548-20.49 4.5602.4759zm-7.0583-9.2789-2.1158-8.2328-3.7119 7.6246zm7.1883 9.3189 9.1838-9.7515-4.7541-11.273 4.9904.8855 3.035 7.5457 5.3593-6.0562 4.9471.8778-8.3991 9.1023 5.2963 12.157-5.1491-.9136-3.39-8.1443-5.9995 6.4782zm-144.86 81.93-8.8405-19.57 5.9139-2.6715 9.5814 11.746-2.5194-14.936 5.9272-2.6775 8.8405 19.57-3.6711 1.6584-6.9591-15.405 3.0743 17.16-3.8046 1.7187-10.83-13.657 6.959 15.405zm18.82-19.87q-1.0276-3.1162-.7929-5.5381.1818-1.7875.9769-3.4224.795-1.635 2.0307-2.7057 1.6398-1.4354 4.13-2.2566 4.5073-1.4864 8.1352.4175 3.6279 1.904 5.2703 6.8843 1.6286 4.9386-.1366 8.6133t-6.2585 5.1565q-4.549 1.5002-8.1492-.3898-3.6002-1.8899-5.2058-6.759zm4.1972-1.5383q1.1423 3.464 3.3316 4.724 2.1893 1.2601 4.6517.448 2.4623-.812 3.4564-3.1064.994-2.2944-.1758-5.8418-1.156-3.5057-3.2622-4.7238t-4.6519-.3785-3.5282 3.0992q-.9823 2.2597.1783 5.7793zm22.2028 4.2683-4.7071-20.952 8.904-2.0004q3.3587-.7545 5.0076-.532 1.6489.2226 2.8879 1.4606t1.6564 3.096q.5298 2.3582-.5114 4.2061t-3.7097 2.8677q1.552.4922 2.6602 1.249 1.1084.757 3.1724 2.8605l3.4766 3.5128-5.0594 1.1366-4.0828-3.872q-2.1784-2.078-2.9215-2.5792-.7431-.5011-1.4679-.586-.7247-.085-2.1825.2426l-.8575.1926 1.965 8.7468zm1.5141-13.042 3.13-.7032q3.0442-.6839 3.7439-1.1113t.9872-1.1526q.2875-.7252.0756-1.6685-.2376-1.0576-.9483-1.581-.7106-.5235-1.7782-.4639-.5305.0441-3.1032.6221l-3.3015.7417zm19.6859 8.522-2.8007-21.291 6.8986-.9075q3.9213-.5158 5.1542-.353 1.893.2386 3.3386 1.681t1.7799 3.984q.258 1.9607-.278 3.3905t-1.532 2.3365q-.9963.9067-2.0967 1.3026-1.4994.5075-4.4185.8915l-2.803.3687 1.0565 8.0314zm1.972-18.255.7947 6.0417 2.3528-.3095q2.5416-.3343 3.3545-.781.813-.4468 1.2058-1.2225.393-.7756.2688-1.7197-.1528-1.1619-.9348-1.8273t-1.8525-.7166q-.7888-.044-3.1126.2617zm17.938 15.795-.8598-21.457 4.3325-.1736.3384 8.4454 8.4893-.3402-.3384-8.4454 4.3325-.1736.8598 21.457-4.3325.1736-.376-9.382-8.4892.3401.3759 9.3821zm21.4-11.33q.1918-3.2756 1.3016-5.441.827-1.595 2.1682-2.8225 1.3411-1.2274 2.8841-1.7681 2.053-.7309 4.6706-.5777 4.738.2774 7.4102 3.3832t2.3657 8.341q-.3039 5.1913-3.2978 7.9581-2.994 2.7668-7.7173 2.4903-4.7819-.2799-7.4334-3.3625t-2.3519-8.2008zm4.4687.1149q-.2132 3.6412 1.3585 5.6188 1.5717 1.9776 4.16 2.129 2.5883.1516 4.3572-1.6157t1.9872-5.4963q.2157-3.6851-1.294-5.593t-4.1858-2.0646q-2.6761-.1567-4.4213 1.5827t-1.9618 5.439zm19.1713 12.2151 3.1603-21.063 4.2879.6434-2.6235 17.485 10.662 1.5997-.5369 3.578zm19.67-7.72q.7767-3.188 2.2573-5.119 1.1-1.4206 2.6396-2.3874 1.5397-.9667 3.1547-1.2216 2.1509-.3504 4.6985.2702 4.6112 1.1235 6.6824 4.6585 2.0712 3.5351.8298 8.6302-1.231 5.0525-4.673 7.2368t-8.039 1.0643q-4.6539-1.134-6.709-4.6424-2.055-3.5085-.8414-8.4898zm4.3755.9153q-.8634 3.5437.3277 5.7713t3.7102 2.8413q2.5191.6138 4.5765-.8073t2.9416-5.0502q.8738-3.5865-.2689-5.7344t-3.7472-2.7825q-2.6045-.6345-4.6336.7633-2.0292 1.3978-2.9064 4.9985zm28.6345 11.2247 1.2075-3.4107 8.8099 3.1189-2.855 8.0642q-1.7242.7881-4.4963.8712-2.7721.083-5.2714-.8018-3.176-1.1244-5.0655-3.293t-2.1996-5.0675q-.31-2.8991.7215-5.8127 1.1195-3.1622 3.3153-5.1508t5.2148-2.396q2.3039-.3188 5.2037.7079 3.7698 1.3346 5.3296 3.666 1.5599 2.3316 1.18 5.336l-4.3286-.6778q.0999-1.643-.7752-2.924t-2.6426-1.9067q-2.679-.9484-4.8613.1903t-3.3654 4.4804q-1.276 3.604-.3121 5.9732.9638 2.3691 3.5599 3.2882 1.2842.4546 2.7537.4077 1.4695-.0469 2.6489-.4374l.9093-2.5684zm14.96 14.53 3.8105-8.1956-1.8897-14.594 4.6092 2.143 1.0006 9.8348 8.0716-5.6167 4.5295 2.1059-12.415 7.975-3.7981 8.169zm-185.42 65.42-10.58-18.688 6.055-3.4279q3.4418-1.9485 4.6458-2.2598 1.8443-.4886 3.7253.3065 1.881.7952 3.1439 3.026.9743 1.721 1.0136 3.2473.0393 1.5264-.5442 2.7405-.5836 1.2141-1.4552 1.9937-1.1997 1.0327-3.762 2.4832l-2.4601 1.3928 3.9908 7.0493zm-5.0167-17.662 3.0022 5.3029 2.0651-1.1691q2.2308-1.2629 2.8169-1.9819.5861-.719.6595-1.5854.0734-.8664-.3956-1.695-.5774-1.0198-1.5517-1.3435-.9744-.3237-1.986.0302-.7478.255-2.7874 1.4097zm22.5867 7.962-8.2055-19.845 4.0069-1.6568 3.2296 7.8108 7.8514-3.2464-3.2296-7.8108 4.0069-1.6568 8.2055 19.845-4.0069 1.6568-3.5878-8.6772-7.8514 3.2464 3.5878 8.6772zm16.55-18.08q-.8417-3.1715-.4642-5.5753.2871-1.7736 1.1774-3.3587.8903-1.5851 2.187-2.5809 1.7218-1.3359 4.2561-2.0085 4.5873-1.2174 8.0963.8976t4.8542 7.1837q1.334 5.0262-.6453 8.5901t-6.5524 4.7776q-4.6298 1.2287-8.1119-.8707-3.4822-2.0994-4.7972-7.0548zm4.2807-1.2876q.9356 3.5254 3.0466 4.9127 2.111 1.3872 4.6171.7222 2.506-.665 3.6339-2.8967t.1698-5.842q-.9469-3.5679-2.9773-4.9084-2.0304-1.3404-4.6214-.6528t-3.7052 2.8853-.1636 5.7798zm21.9793 5.6476-2.7349-21.3 4.1844-.5373 10.544 13.105-1.8263-14.224 3.9955-.513 2.7348 21.3-4.3152.554-10.37-12.787 1.7834 13.89zm20.68-13.14q.0165-3.2812 1.0092-5.5028.7407-1.6369 2.0143-2.9342t2.7856-1.9196q2.0111-.8395 4.6331-.8263 4.746.0239 7.5803 2.9825t2.8079 8.2027q-.0262 5.2-2.8681 8.1229-2.8419 2.9227-7.5733 2.8989-4.79-.0241-7.6024-2.9607t-2.7866-8.0634zm4.4684-.124q-.0183 3.6474 1.6567 5.5382 1.6751 1.8908 4.2678 1.9038 2.5927.0131 4.2647-1.8462t1.6908-5.5946q.0186-3.6914-1.5909-5.5159t-4.2901-1.838-4.3305 1.8166q-1.6498 1.8301-1.6685 5.5361zm19.7916 11.294 2.7164-21.125 4.3005.553-2.2549 17.536 10.693 1.375-.4615 3.5886zm19.84-8.05q.8111-3.1794 2.3125-5.0943 1.1153-1.4087 2.6653-2.3587 1.55-.95 3.1677-1.1874 2.1546-.3271 4.6953.321 4.5988 1.1732 6.6317 4.7305 2.0328 3.5573.7365 8.6386-1.2855 5.0388-4.7509 7.1858t-8.05.9774q-4.6414-1.1841-6.6584-4.7146t-.7496-8.4984zm4.3653.9625q-.9017 3.5343.2653 5.7746t3.6793 2.8813q2.5123.641 4.585-.7578t2.9961-5.0181q.9125-3.5768-.2069-5.737t-3.7169-2.8228q-2.5975-.6627-4.6416.7131-2.0442 1.3758-2.9603 4.9668zm28.6447 12.0475 1.3662-3.3503 8.6538 3.529-3.2303 7.9214q-1.7593.7063-4.5322.6592-2.7729-.0471-5.228-1.0483-3.1197-1.2722-4.9054-3.527t-1.9593-5.1652q-.1736-2.9104.9935-5.7724 1.2667-3.1061 3.5534-4.9895t5.3215-2.1486q2.3163-.2103 5.1647.9513 3.703 1.5101 5.1517 3.9122t.9282 5.3854l-4.292-.8802q.177-1.6364-.637-2.957-.8141-1.3208-2.5503-2.0288-2.6314-1.073-4.8648-.038t-3.572 4.3174q-1.4437 3.5402-.5921 5.952.8516 2.4116 3.4016 3.4515 1.2614.5144 2.7316.5365 1.4701.0221 2.6665-.3126l1.0288-2.5229zm14.12 15.49 4.4527-7.8651-.7184-14.698 4.4233 2.5042.2122 9.8832 8.4943-4.9542 4.3468 2.4609-13.012 6.9582-4.4383 7.8396zm-159.03 70.34-13.911-16.36 5.3007-4.5074q3.013-2.5621 4.1368-3.0947 1.7192-.8274 3.7163-.4009t3.6577 2.3794q1.281 1.5065 1.6072 2.9981.3262 1.4916-.0181 2.794-.3443 1.3022-1.0534 2.2321-.9836 1.2402-3.2266 3.1476l-2.1538 1.8314 5.2476 6.1711zm-8.2548-16.401 3.9475 4.6423 1.8078-1.5373q1.9529-1.6606 2.393-2.4772.4401-.8165.349-1.6812-.091-.8647-.708-1.59-.759-.8928-1.777-1.027-1.018-.1343-1.9448.4039-.6864.3913-2.4718 1.9096zm23.7748 3.651-10.589-18.682 3.7721-2.1381 4.1679 7.3531 7.3913-4.1895-4.1679-7.3531 3.7721-2.1381 10.589 18.682-3.7721 2.1381-4.6302-8.1687-7.3913 4.1895 4.6302 8.1687zm14.99-20.21q-1.0027-3.1243-.7486-5.5443.196-1.786 1.0041-3.4145.808-1.6286 2.0522-2.6894 1.6512-1.4222 4.1479-2.2235 4.5191-1.4503 8.1316.4825 3.6126 1.9328 5.2151 6.9261 1.5891 4.9514-.2053 8.612-1.7944 3.6603-6.2995 5.1062-4.561 1.4638-8.1458-.4549-3.585-1.9186-5.1516-6.8004zm4.2093-1.5048q1.1146 3.473 3.2938 4.7505t4.648.4852q2.4688-.7923 3.4811-3.0787t-.1291-5.8431q-1.128-3.5148-3.2243-4.7497t-4.6487-.4157q-2.5524.8191-3.5528 3.071t.1321 5.7806zm22.3007 4.7048-2.2845-21.353 4.1948-.4488 10.265 13.324-1.5256-14.259 4.0055-.4285 2.2844 21.353-4.3259.4628-10.098-13.003 1.4897 13.924zm21.58-1.81 1.7952-21.399 15.867 1.3311-.3037 3.6201-11.546-.9686-.398 4.744 10.744.9014-.3024 3.6055-10.744-.9013-.4886 5.8243 11.955 1.0029-.3025 3.6055zm24.61 3.36 4.5443-17.253-6.1619-1.623.9253-3.513 16.503 4.3466-.9253 3.513-6.1478-1.6192-4.5443 17.253zm12.78 3.94 7.9431-19.952 4.0284 1.6038-7.9431 19.952zm23.79 2.9 3.0001 3.2328q-2.5747 2.5817-5.3724 2.9576-2.7977.3759-5.8052-1.3288-3.7211-2.1092-4.6759-6.0096-.9548-3.9003 1.5445-8.3096 2.6437-4.6642 6.515-5.8795 3.8713-1.2154 7.7963 1.0094 3.428 1.9431 4.4205 5.1828.5954 1.9202-.0388 4.5243l-4.2395-1.2244q.4921-1.6406-.0825-3.0776-.5746-1.437-2.0784-2.2894-2.0772-1.1774-4.2158-.4196-2.1386.7579-4.0311 4.0967-2.0081 3.5427-1.5861 5.7688.422 2.2261 2.461 3.3818 1.5038.8524 3.1287.5106 1.625-.3418 3.2594-2.1262zm6.47 5.18 3.4796 2.4204q-1.0858 1.8648-.844 3.378.242 1.5132 1.7485 2.7943 1.5958 1.357 2.9789 1.3698 1.3832.0128 2.1518-.891.4934-.5804.4994-1.277.006-.6968-.5859-1.7193-.4095-.6943-2.0374-2.9632-2.096-2.9168-2.3513-4.7875-.3583-2.6313 1.2928-4.573 1.0628-1.2498 2.6966-1.7353 1.6338-.4854 3.4513.0794 1.8175.5649 3.7034 2.1685 3.08 2.619 3.4885 5.2931.4085 2.674-1.4302 4.9946l-3.4265-2.6638q.8603-1.4413.6325-2.5868t-1.6227-2.3316q-1.4396-1.224-2.757-1.3254-.8472-.0666-1.388.5695-.4935.5803-.3536 1.4107.179 1.056 2.1054 3.6747t2.5643 4.2091q.6378 1.5903.394 3.2t-1.563 3.1608q-1.1956 1.4061-3.0206 1.9694-1.825.5633-3.761-.0543-1.936-.6176-4.0675-2.43-3.1023-2.638-3.5457-5.4859-.4433-2.8479 1.5674-5.8683zm-156.51 184.89 2.2328 1.4077q-.8664 1.3245-.6607 2.6136t1.562 2.4751q1.3673 1.1957 2.516 1.2174t1.8042-.7281q.5883-.6727.3413-1.5697-.1765-.6215-1.4408-2.447-1.7012-2.4605-2.1928-3.6007t-.3052-2.2323.9386-1.9522q.6846-.783 1.6264-1.1366.9417-.3538 1.945-.2548.762.0632 1.7688.5251 1.0068.462 1.922 1.2624 1.3784 1.2054 2.0733 2.5136.6949 1.3082.598 2.4203-.0967 1.1121-.9025 2.4118l-2.1722-1.4325q.6584-1.0199.4679-2.0816t-1.3483-2.0742q-1.3673-1.1957-2.3471-1.2547-.9798-.059-1.5101.5476-.3375.3859-.365.9068-.037.532.298 1.1946.2014.3706 1.3098 2.0404 1.6144 2.4042 2.1335 3.4906.5191 1.0864.3954 2.1847-.1237 1.0983-1.0108 2.1128-.8678.9924-2.2134 1.3628-1.3455.3704-2.8566-.1046-1.511-.475-2.8895-1.6803-2.2826-1.996-2.6497-3.9906-.3671-1.9946.9317-4.1474zm5.81 18.86 12.096-17.797 1.9869 1.3504-1.1363 1.6719q1.3696-.5037 2.5875-.3933 1.2179.1105 2.4778.9668 1.6476 1.12 2.3312 2.8243.6836 1.7044.2758 3.6855t-1.6594 3.8226q-1.3422 1.9747-3.1255 3.074t-3.7064 1.0232-3.4132-1.089q-1.0904-.741-1.6437-1.7902-.5533-1.049-.633-2.1306l-4.2571 6.2634zm9.6491-9.949q-1.688 2.4836-1.4894 4.3543.1986 1.8707 1.6282 2.8424 1.4538.9881 3.3254.4625 1.8716-.5257 3.6255-3.1061 1.6716-2.4593 1.4916-4.3705-.18-1.9112-1.5853-2.8664-1.3932-.947-3.3506-.3733-1.9574.5736-3.6454 3.0572zm19.4309 14.539 2.2782 1.5319q-1.654 1.8386-3.8049 2.2269-2.1508.3882-4.5682-.8365-3.0446-1.5425-3.8783-4.3213-.8337-2.7788.881-6.1632 1.7742-3.502 4.5573-4.5223 2.783-1.0204 5.6578.4361 2.7833 1.4101 3.5874 4.1986t-.937 6.2251q-.106.209-.3308.6206l-10.349-5.2432q-1.028 2.3529-.4806 4.1574.5473 1.8044 2.2852 2.6849 1.2936.6554 2.5526.4393 1.2589-.216 2.5494-1.4343zm-5.7962-7.7151 7.7488 3.9258q.7303-1.8304.4421-3.0767-.4353-1.9283-2.2255-2.8353-1.6203-.821-3.274-.2957-1.6536.5251-2.6915 2.2819zm20.7562 13.5151 2.4566 1.2256q-1.4034 2.0364-3.4863 2.6985-2.0829.662-4.6379-.241-3.218-1.1374-4.4027-3.7857-1.1847-2.6482.0797-6.2253 1.3083-3.7014 3.9367-5.0717 2.6284-1.3704 5.6669-.2964 2.9418 1.0398 4.0984 3.7014 1.1567 2.6616-.1272 6.294-.0781.221-.2482.658l-10.94-3.86q-.7161 2.4658.059 4.1847.7752 1.719 2.6121 2.3682 1.3673.4833 2.588.1068t2.3434-1.7508zm-6.7418-6.9041 8.19 2.8948q.4884-1.9093.0421-3.108-.68-1.8562-2.5722-2.525-1.7126-.6053-3.2848.1285t-2.3751 2.6096zm22.0218 10.0041 2.4585.8898q-.9946 2.5253-3.0316 3.6269t-4.5255.5502q-3.1178-.6907-4.5612-3.1486t-.6006-6.262q.545-2.4599 1.7689-4.1242t3.0945-2.2176q1.8705-.5533 3.8298-.1192 2.4742.5482 3.7701 2.148t1.2291 4.0008l-2.5883-.1684q-.0185-1.6095-.7556-2.583-.737-.9735-2.0242-1.2587-1.945-.4309-3.4696.6942t-2.193 4.1427q-.6781 3.0606.1872 4.7076.8654 1.647 2.7532 2.0653 1.516.3359 2.7374-.3688t1.921-2.5752zm3.55 6.43 2.072-21.374 2.6244.2544-.7434 7.6691q2.0434-1.9506 4.8428-1.6792 1.7204.1668 2.9232.9677 1.2027.801 1.6336 2.0495.4308 1.2486.2103 3.5231l-.9512 9.8124-2.6244-.2544.9512-9.8124q.1908-1.9683-.5752-2.9477-.766-.9793-2.326-1.1306-1.1665-.113-2.253.3924t-1.6244 1.4982q-.5377.9928-.7144 2.8153l-.8212 8.471zm23.51-3.34 2.5599-.6431q.3599 1.5412 1.4344 2.2825 1.0745.7412 2.8689.579 1.809-.1634 2.6178-.9792.8088-.8159.7191-1.808-.0804-.8899-.8998-1.3307-.5714-.3013-2.7648-.6473-2.9545-.4684-4.1187-.9t-1.8255-1.3207q-.6613-.889-.764-2.0269-.0937-1.0358.3007-1.9613.3944-.9255 1.1586-1.5829.5719-.5076 1.6012-.9169 1.0294-.4092 2.2402-.5186 1.8236-.1648 3.2497.2358 1.4261.4006 2.1637 1.2385.7376.838 1.1214 2.3182l-2.536.5822q-.2832-1.1805-1.1827-1.7758-.8995-.5953-2.4314-.4569-1.809.1635-2.5282.8315-.7192.668-.6467 1.4704.0462.5106.404.8901.3592.394 1.07.6093.407.1103 2.3803.4615 2.8537.4922 3.998.8668t1.8534 1.2224q.709.8479.8303 2.19.1186 1.313-.5425 2.542-.661 1.229-2.048 1.9942-1.387.7652-3.2107.93-3.0199.2729-4.7162-.8388t-2.3567-3.5376zm13.8-4.41q-.9073-4.225 1.0048-6.7631 1.5992-2.1114 4.4206-2.7172 3.1365-.6736 5.5686.9541t3.2102 5.2511q.6305 2.936.111 4.808-.5193 1.872-2.0022 3.1643t-3.4737 1.7198q-3.1938.6859-5.603-.9393t-3.2363-5.4777zm2.6496-.569q.6274 2.9217 2.2142 4.1016t3.5203.7648q1.9191-.4122 2.8801-2.1467.961-1.7346.3181-4.7278-.6058-2.8214-2.1999-3.9998t-3.4988-.7694q-1.9334.4152-2.8975 2.1354-.964 1.7202-.3366 4.642zm25.8404.819-.7615-2.1545q-.834 3.0913-3.7756 4.1311-1.2982.4589-2.5996.3595-1.3013-.0993-2.113-.6592-.8115-.5599-1.4181-1.5728-.4107-.6783-.972-2.2666l-3.2122-9.0877 2.486-.8787 2.8753 8.1347q.6883 1.9474 1.0794 2.5704.5814.8976 1.5387 1.1885.9573.2909 2.076-.1046 1.1187-.3954 1.8967-1.3152.778-.9197.8364-2.0513.0584-1.1315-.6055-3.0098l-2.7777-7.8585 2.486-.8787 5.1843 14.667zm6.05-2.41-7.0307-13.877 2.1169-1.0725.9997 1.9731q.3703-3.0613 3.258-4.5244 1.2545-.6355 2.5349-.7176 1.2803-.0821 2.1737.3848.8934.467 1.6122 1.3672.4616.5871 1.2892 2.2205l4.323 8.5328-2.3521 1.1916-4.2767-8.4414q-.7283-1.4374-1.3634-2.0105-.6353-.5731-1.5495-.6436-.9143-.0705-1.8551.4061-1.5027.7613-2.1106 2.268-.6079 1.5067.7427 4.1724l3.8397 7.579zm23.13-13.46-1.1034-1.6234q.0774 2.7458-2.2971 4.3598-1.5386 1.0458-3.4052 1.0747t-3.6088-1.0098q-1.7421-1.0387-3.0843-3.0135-1.3093-1.9263-1.7335-3.9316-.4243-2.0053.2918-3.7141t2.303-2.7875q1.163-.7905 2.4053-.9174 1.242-.127 2.3468.2735l-4.3312-6.3725 2.1686-1.4739 12.072 17.761zm-11.258-1.7356q1.6798 2.4715 3.5534 2.9869 1.8736.5155 3.291-.448 1.4296-.9716 1.6344-2.82.2049-1.8484-1.4255-4.2472-1.7951-2.6412-3.6526-3.1852-1.8576-.544-3.3477.4688-1.4538.9881-1.6221 2.8382-.1683 1.8501 1.5692 4.4064zm12.718-5.0144 1.6928-2.0252q1.1972 1.0352 2.5022 1.0032t2.6613-1.2181q1.3673-1.1957 1.542-2.3311.1747-1.1354-.481-1.8853-.5883-.6726-1.5102-.5475-.6394.092-2.6172 1.1016-2.6655 1.3579-3.861 1.693t-2.253.005q-1.0575-.3303-1.8097-1.1903-.6846-.783-.9096-1.7634-.225-.9805.007-1.9616.1642-.7469.7563-1.683.5922-.9362 1.5074-1.7365 1.3784-1.2054 2.7676-1.7196 1.3892-.5143 2.4784-.27t2.27 1.216l-1.7094 1.9618q-.923-.7885-2.0006-.7412-1.0776.0472-2.2354 1.0597-1.3673 1.1957-1.5564 2.1589-.189.9631.3413 1.5696.3375.386.85.4825.5223.1077 1.2238-.136.3941-.1501 2.1968-1.026 2.5979-1.2794 3.7438-1.6491 1.1459-.3697 2.2179-.1007t1.9592 1.2835q.8678.9924 1.0555 2.3753.1877 1.383-.4845 2.8172-.6722 1.4343-2.0506 2.6397-2.2826 1.9961-4.3083 2.094t-3.9861-1.4763zm-146.23 85 6.8634-20.395 2.2769.7662-.6448 1.916q1.1837-.8536 2.3864-1.0749 1.2027-.2212 2.6466.2647 1.8881.6355 3.005 2.0932 1.1168 1.4577 1.257 3.4755.14 2.0178-.5701 4.128-.7616 2.263-2.1835 3.8014-1.422 1.5385-3.2946 1.9824-1.8727.444-3.5804-.1307-1.2495-.4205-2.0646-1.282-.8151-.8617-1.1828-1.8819l-2.4155 7.1777zm6.6174-12.178q-.9578 2.8461-.2634 4.5944.6945 1.7484 2.3327 2.2997 1.666.5607 3.3273-.449 1.6612-1.0097 2.6564-3.9668.9485-2.8183.2611-4.6107-.6873-1.7923-2.2978-2.3343-1.5966-.5373-3.3275.5416t-2.6887 3.9251zm11.1726 11.698 5.0403-20.875 2.5631.6189-1.8085 7.4898q2.2961-1.6457 5.03-.9856 1.6802.4057 2.7592 1.367 1.0789.9612 1.331 2.2578.252 1.2966-.2843 3.5179l-2.314 9.583-2.563-.6189 2.3139-9.583q.4641-1.9223-.1574-2.999t-2.1452-1.4448q-1.1391-.275-2.2857.0735-1.1466.3485-1.8178 1.2564-.6713.9078-1.1011 2.6878l-1.9976 8.273zm16.46-4.09q.6438-4.2731 3.3292-5.972 2.242-1.4103 5.0955-.9804 3.1722.478 4.8725 2.8598 1.7002 2.382 1.1481 6.0466-.4474 2.9694-1.5946 4.5372t-2.9911 2.253q-1.8438.685-3.8572.3817-3.2302-.4866-4.9098-2.858t-1.0926-6.268zm2.6797.4037q-.4452 2.955.6225 4.6194 1.0677 1.6644 3.023 1.959 1.941.2925 3.4528-.9908 1.5118-1.2832 1.9678-4.3106.4299-2.8535-.645-4.519-1.075-1.6656-3.0014-1.9559-1.9555-.2946-3.465.9742-1.5096 1.2688-1.9548 4.2237zm13.6803 9.7563.9605-15.527 2.3685.1465-.1366 2.2077q1.869-2.4528 5.1-2.2529 1.4036.0868 2.5493.664 1.1457.5773 1.68 1.4322.5341.8549.6984 1.9952.101.74-.0121 2.5676l-.5906 9.5472-2.6317-.1628.5843-9.4448q.0995-1.6082-.1583-2.4241-.2577-.8158-1.0105-1.3394-.7528-.5236-1.8055-.5887-1.6814-.104-2.9682.8878t-1.4713 3.9744l-.5246 8.4799zm27.19-4.44 2.7326.264q-.5805 2.404-2.2877 3.7685-1.7073 1.3645-4.4163 1.437-3.4119.0913-5.4669-1.9566-2.055-2.0478-2.1565-5.8404-.105-3.9244 1.8578-6.1456t5.1843-2.3074q3.119-.0834 5.1526 1.987t2.1366 5.9215q.006.2343.004.7033l-11.597.3102q.215 2.5586 1.5546 3.8856 1.3397 1.327 3.2872 1.275 1.4497-.0389 2.4543-.8277 1.0047-.7889 1.5604-2.4742zm-8.7681-4.0297 8.6834-.2323q-.2282-1.9575-1.0745-2.9166-1.3-1.4892-3.3062-1.4355-1.8158.0486-3.0206 1.2971t-1.2822 3.2874zm14.9681 8.8797-2.1187-15.412 2.3364-.3212.2973 2.1623q.57-1.2317 1.6797-2.0866t2.648-1.0664q1.7124-.2354 2.9058.325t1.8188 1.7757q1.4574-2.9506 4.3888-3.3536 2.2929-.3152 3.701.785t1.7712 3.7415l1.4544 10.579-2.5976.357-1.3347-9.7084q-.2155-1.5673-.5642-2.2217-.3488-.6544-1.0741-.9835-.7254-.329-1.6252-.2054-1.6253.2234-2.5506 1.4522-.9253 1.2288-.5981 3.6087l1.2309 8.9539-2.6122.3591-1.3766-10.013q-.2394-1.7414-.9976-2.5244-.7583-.783-2.2094-.5834-1.103.1516-1.9591.8607-.8563.7092-1.1234 1.8844-.2673 1.1753.022 3.2795l1.0992 7.9961zm33.84-11.29 2.7247-.3362q-.0441 2.4728-1.414 4.1757t-3.9984 2.3624q-3.3105.8305-5.7614-.7217t-3.3742-5.2322q-.9553-3.8079.4778-6.4026t4.5589-3.379q3.0263-.7592 5.4613.8197t3.3725 5.3157q.057.2273.1569.6855l-11.253 2.8233q.766 2.4508 2.3619 3.455t3.4857.53q1.4066-.353 2.2158-1.3414.8092-.9883.9854-2.7542zm-9.4343-2.0278 8.4254-2.1139q-.6482-1.8611-1.6827-2.6134-1.5926-1.1711-3.5391-.6827-1.7618.442-2.6665 1.9225-.9047 1.4805-.537 3.4875zm13.9743 1.1678 2.3349-1.2308q.7145 1.4122 1.9339 1.8781 1.2194.4658 2.9245-.1165 1.7189-.587 2.3116-1.5712.5927-.984.2707-1.9267-.2888-.8456-1.1892-1.0799-.6265-.1575-2.8394.0255-2.9814.2443-4.2147.1005-1.2333-.1438-2.0862-.851-.8529-.707-1.2222-1.7883-.3361-.9842-.172-1.9768.1641-.9925.751-1.8121.4355-.6286 1.3387-1.2698.9033-.6413 2.0538-1.0342 1.7328-.5918 3.2132-.5401 1.4804.0517 2.3954.6911.915.6395 1.6382 1.9868l-2.326 1.166q-.5546-1.08-1.5695-1.4455-1.0148-.3654-2.4704.1317-1.7189.587-2.2595 1.4063-.5406.8192-.2802 1.5817.1657.4851.6032.7691.4423.2979 1.1838.3388.4217.0108 2.422-.1151 2.8891-.1973 4.0895-.1042 1.2005.0931 2.0901.749.8897.6559 1.3252 1.9312.4261 1.2476.0747 2.5982-.3514 1.3506-1.5178 2.4223t-2.8992 1.6635q-2.8695.98-4.7807.3015-1.9112-.6785-3.1272-2.8792zm-88.85 70.07-2.9084-16.007 2.7059.3187 1.4082 9.2074.5259 3.4249q.0873-.2405 1.1754-3.0918l3.5244-8.7592 2.6914.317 1.2576 9.2339.4232 3.044 1.2387-2.8778 3.6998-8.6206 2.5459.2998-6.6496 14.881-2.7204-.3204-1.3688-9.542-.2864-2.7034-4.5277 11.517zm18.04-5.85q.1746-4.3178 2.659-6.2991 2.075-1.646 4.9584-1.5294 3.2054.1296 5.1549 2.3122t1.7998 5.8856q-.1213 3.0005-1.091 4.6839-.9697 1.6834-2.7279 2.5652-1.7583.8818-3.7927.7996-3.2639-.132-5.1918-2.3064t-1.7687-6.1116zm2.7077.1095q-.1207 2.9858 1.1218 4.5241 1.2426 1.5383 3.2185 1.6182 1.9613.0793 3.3243-1.3609t1.4867-4.4993q.1166-2.8834-1.1333-4.422t-3.1966-1.6173q-1.9759-.0799-3.3384 1.3457-1.3624 1.4256-1.4832 4.4114zm14.6223 8.1805-.21-15.555 2.3728-.032.0318 2.3582q.8857-1.6674 1.6476-2.2051.7618-.5377 1.6846-.5501 1.3329-.018 2.7212.813l-.8751 2.4582q-.9744-.5582-1.9411-.5451-.8642.0117-1.5456.541-.6814.5292-.9619 1.456-.4204 1.412-.3979 3.0817l.11 8.1438zm20.12-.83-.1319-1.9584q-1.3206 2.4086-4.1852 2.6015-1.8562.125-3.4816-.7933-1.6254-.9182-2.604-2.6949-.9785-1.7766-1.139-4.159-.1565-2.3238.4907-4.2687.6471-1.9448 2.1285-3.0576t3.3959-1.2417q1.403-.0945 2.539.4237 1.136.518 1.887 1.4218l-.5177-7.6877 2.6162-.1762 1.4429 21.426zm-8.8378-7.1861q.2008 2.9815 1.5571 4.373t3.0663 1.2764q1.7246-.1161 2.8354-1.6077t.9159-4.3854q-.2146-3.1861-1.5426-4.5942-1.3281-1.4081-3.1258-1.287-1.7538.1181-2.8339 1.6296t-.8724 4.5954zm13.7678 2.1161 2.5318-.7461q.422 1.5254 1.5255 2.2226 1.1036.6972 2.89.4626 1.801-.2365 2.5761-1.0844.7751-.8479.6454-1.8355-.1163-.886-.9528-1.2932-.5832-.278-2.7887-.535-2.9711-.3486-4.1517-.7328-1.1807-.3843-1.8774-1.2457-.6967-.8615-.8455-1.9943-.1354-1.0312.2212-1.9718.3567-.9407 1.0937-1.6284.551-.5304 1.5628-.9809 1.012-.4505 2.2174-.6088 1.8155-.2384 3.2566.1042 1.4412.3426 2.212 1.15.7709.8074 1.2142 2.271l-2.5104.6841q-.3306-1.168-1.2535-1.7265-.9228-.5584-2.4478-.3581-1.801.2365-2.4925.933-.6915.6966-.5866 1.4954.0668.5083.4396.873.3749.3793 1.0937.5656.4113.0937 2.397.3648 2.8713.3765 4.0298.7045t1.9013 1.1465q.7428.8185.9183 2.1546.1716 1.3071-.4393 2.562t-1.9658 2.0753q-1.3549.8206-3.1704 1.059-3.0064.3948-4.7463-.6473-1.7398-1.0421-2.4979-3.4394zm-175.13 34.14 9.825-19.145 2.1373 1.0969-.923 1.7985q1.2976-.6677 2.52-.7073 1.2221-.0396 2.5775.656 1.7724.9096 2.6596 2.5174t.7252 3.624q-.162 2.0161-1.1786 3.997-1.0902 2.1243-2.7254 3.4338t-3.5532 1.4695q-1.918.16-3.5209-.6626-1.1729-.602-1.8506-1.5754-.6777-.9735-.8892-2.037l-3.4578 6.7378zm8.3577-11.056q-1.3711 2.6717-.9448 4.504.4262 1.8323 1.964 2.6215 1.564.8026 3.357.0516 1.7932-.751 3.2178-3.5269 1.3577-2.6456.945-4.5203t-1.9245-2.6506q-1.4987-.7691-3.3711.0399-1.8724.809-3.2434 3.4807zm9.2723 13.276 8.7578-19.608 2.4075 1.0753-3.1423 7.0352q2.5574-1.2 5.1254-.053 1.5782.705 2.4641 1.8466.8858 1.1417.8975 2.4624.0117 1.3208-.9202 3.4072l-4.0204 9.0013-2.4075-1.0753 4.0205-9.0013q.8065-1.8056.3914-2.9776t-1.8462-1.8112q-1.07-.478-2.2608-.344-1.1908.1339-2.0162.9043-.8254.7704-1.572 2.4423l-3.4709 7.7708zm15.28 6.66 5.7203-14.467 2.2068.8726-.8672 2.1932q1.4532-1.2054 2.3623-1.413.909-.2076 1.7673.1317 1.2396.4902 2.2077 1.7866l-1.7441 1.941q-.689-.8868-1.5881-1.2423-.8037-.3178-1.6352-.0874-.8315.2304-1.4432.9809-.9258 1.1461-1.5398 2.6991l-2.9948 7.5739zm19.58 5.19q-1.7915.6976-3.2396.7389-1.4481.0413-2.9155-.4665-2.4225-.8384-3.3141-2.4723-.8916-1.6339-.2544-3.475.3737-1.0797 1.174-1.8025.8005-.7228 1.7833-.9872.9828-.2644 2.0753-.1963.8007.0601 2.3442.3928 3.1423.6845 4.7406.6796.191-.5074.239-.6458.527-1.5227.0366-2.39-.663-1.175-2.5455-1.8265-1.758-.6084-2.8087-.2823t-1.9935 1.7515l-2.3214-1.1754q.8736-1.4493 1.9679-2.1478 1.0943-.6986 2.7136-.7194 1.6193-.021 3.5158.6355 1.8826.6515 2.906 1.5018 1.0233.8502 1.3447 1.7132.3213.863.1883 1.964-.0958.6799-.6707 2.341l-1.1498 3.3223q-1.2025 3.4746-1.3619 4.4502-.1594.9756.019 1.983l-2.6025-.9007q-.1193-.9094.1293-1.986zm1.7183-5.6367q-1.5482.0842-4.3956-.4672-1.6132-.3103-2.3458-.2538-.7326.0565-1.2631.4696-.5305.4132-.7557 1.0638-.345.9967.1795 1.9222.5245.9256 1.978 1.4286 1.4397.4983 2.779.2565 1.3392-.2418 2.2437-1.1533.6937-.7055 1.2638-2.3528zm4.1617 4.7167 2.6186.3318q-.2252 1.5666.5062 2.6478t2.4619 1.5827q1.7446.5055 2.7947.0397 1.05-.466 1.3273-1.4226.2487-.8583-.3543-1.5668-.4227-.4886-2.3401-1.6084-2.582-1.5107-3.5094-2.3362-.9275-.8255-1.2203-1.894-.2928-1.0685.0252-2.166.2895-.999.9934-1.7176.704-.7187 1.6549-1.0532.7173-.265 1.825-.2719 1.1077-.007 2.2755.3315 1.7587.5096 2.9415 1.4014 1.1828.8918 1.5652 1.9405.3824 1.0488.2016 2.5672l-2.574-.3799q.1654-1.2026-.456-2.0843-.6215-.8816-2.0989-1.3097-1.7446-.5055-2.6575-.1448-.9128.3608-1.137 1.1346-.1428.4925.0526.9761.1913.4977.7751.9567.3392.2508 2.0495 1.2955 2.4794 1.4963 3.4091 2.2613.9298.765 1.282 1.8127.3523 1.0476-.0229 2.342-.3669 1.2663-1.4297 2.1708-1.0628.9045-2.633 1.1129-1.5702.2084-3.329-.3012-2.9124-.844-4.0883-2.4963t-.909-4.1524zm25.66 6.42 2.575.9521q-1.1744 2.1765-3.1732 3.0605-1.9988.884-4.6367.2632-3.3223-.782-4.7871-3.2861t-.5956-6.1973q.8994-3.8214 3.3638-5.4686t5.6013-.909q3.0371.7148 4.4755 3.2354t.5558 6.2706q-.0537.2282-.1754.6811l-11.293-2.6578q-.4447 2.529.5123 4.1536.957 1.6247 2.8534 2.0711 1.4116.3322 2.5842-.1743 1.1726-.5066 2.1398-1.9945zm-7.4504-6.1326 8.4555 1.99q.2786-1.951-.295-3.0942-.8773-1.7715-2.8308-2.2313-1.768-.4161-3.2515.4838-1.4834.9-2.0782 2.8517zm12.0204 7.5126 2.6387.0641q-.065 1.5814.7724 2.5828.8374 1.0014 2.61 1.3245 1.787.3258 2.7842-.2443.9974-.5701 1.176-1.5501.1603-.879-.5115-1.5227-.4702-.4431-2.4914-1.3625-2.722-1.2407-3.7285-1.9677-1.0065-.727-1.4063-1.7603-.3998-1.0333-.1949-2.1573.1866-1.0232.8139-1.8096.6273-.7865 1.5394-1.2158.6867-.3364 1.788-.4558 1.1013-.1193 2.2974.0987 1.8014.3284 3.0686 1.0955 1.2672.767 1.7542 1.7716.4869 1.0045.4613 2.5335l-2.5994-.1165q.0425-1.2132-.6653-2.0272-.7078-.814-2.221-1.0898-1.787-.3258-2.6583.1258-.8715.4516-1.016 1.2442-.092.5044.1515.9657.2409.4757.8683.873.3628.215 2.1705 1.0806 2.6185 1.2368 3.621 1.9035 1.0027.6667 1.4595 1.6732.4567 1.0064.215 2.3322-.2364 1.297-1.2019 2.3047-.9654 1.0077-2.5064 1.3745-1.541.3668-3.3423.0384-2.983-.5439-4.3207-2.0682t-1.326-4.0387zm33.51 7.64q-1.5848 1.0884-2.9852 1.4594-1.4004.371-2.945.2119-2.55-.2629-3.7912-1.65-1.2413-1.387-1.0415-3.325.1172-1.1365.7313-2.023.6142-.8866 1.5106-1.3684.8964-.482 1.9756-.6653.7933-.1243 2.3719-.153 3.2156-.0515 4.7705-.4214.0701-.5376.0852-.6833.1652-1.6028-.5103-2.3351-.9138-.9925-2.8955-1.1967-1.8506-.1907-2.799.3668-.9483.5576-1.5406 2.1606l-2.5285-.614q.5194-1.6105 1.4252-2.5406.9058-.9301 2.4775-1.3203 1.5717-.3903 3.568-.1845 1.9817.2043 3.1722.7982t1.7005 1.3607q.51.7668.632 1.869.062.6839-.1182 2.4324l-.3605 3.497q-.377 3.6575-.3093 4.6437.0677.9862.4715 1.9262l-2.7394-.2824q-.3238-.858-.3278-1.9629zm.3852-5.8802q-1.4881.4357-4.3861.5493-1.6414.0664-2.3418.2887-.7003.2224-1.1224.7458-.4221.5235-.4927 1.2083-.1081 1.0491.614 1.8304.722.7813 2.252.939 1.5153.1562 2.764-.3851t1.921-1.6354q.5141-.8453.6928-2.5793zm5.9448 8.3502.7585-15.538 2.3702.1157-.1078 2.2093q1.8368-2.4769 5.0703-2.319 1.4046.0686 2.5577.6308 1.1532.5623 1.6984 1.4102.5452.848.7243 1.986.1106.7386.0213 2.5675l-.4664 9.554-2.6336-.1285.4614-9.4516q.0786-1.6094-.1898-2.4218-.2683-.8124-1.0279-1.3261-.7595-.5137-1.813-.5652-1.6826-.082-2.9564.9263t-1.4195 3.9932l-.4142 8.486zm26.78.65-.0109-1.9629q-1.4666 2.3226-4.3377 2.3385-1.8603.0103-3.426-1.0064t-2.4328-2.8503-.8803-4.2213q-.013-2.3291.753-4.2303t2.313-2.9206q1.547-1.0193 3.466-1.03 1.4061-.008 2.508.5794 1.102.5871 1.7956 1.5355l-.0427-7.705 2.622-.0145.119 21.474zm-8.3778-7.7174q.0165 2.9882 1.2845 4.4607 1.2679 1.4725 2.9818 1.463 1.7285-.01 2.9291-1.4298 1.2006-1.4202 1.1846-4.3206-.0177-3.1933-1.2564-4.6806t-3.0405-1.4773q-1.7578.01-2.929 1.4518-1.1712 1.442-1.1541 4.5328zm21.8578 2.5874 2.5639-.6273q.3503 1.5434 1.4202 2.2914 1.0699.748 2.8653.5969 1.81-.1523 2.6238-.963.8138-.8109.7303-1.8035-.0749-.8904-.8915-1.3362-.5696-.3049-2.7607-.6645-2.9516-.4867-4.1131-.9255t-1.8173-1.3318q-.6558-.893-.7515-2.0316-.0872-1.0364.3129-1.9594.4-.923 1.1684-1.5757.575-.5041 1.6069-.907 1.0319-.4028 2.2434-.5047 1.8246-.1535 3.2482.256 1.4236.4094 2.156 1.2518.7324.8425 1.107 2.3251l-2.5396.5665q-.2759-1.1822-1.1716-1.7831-.8958-.6009-2.4285-.472-1.81.1523-2.5333.8159-.7233.6635-.6558 1.4664.043.5109.3985.8926.3568.3962 1.0661.6159.4064.1128 2.3774.4762 2.8506.51 3.9926.8916t1.8458 1.2339q.7038.8522.8168 2.1951.1105 1.3137-.5582 2.5386-.6687 1.2249-2.0604 1.9814-1.3917.7565-3.2163.91-3.0216.2542-4.711-.868-1.6893-1.122-2.3347-3.552zm26.26-3.2 2.7452-.0327q-.3175 2.4527-1.8674 3.9936-1.55 1.5409-4.2353 1.9054-3.3821.4591-5.6462-1.3548-2.2641-1.814-2.7745-5.5734-.5281-3.8901 1.1834-6.3103t4.9048-2.8537q3.0918-.4197 5.337 1.419 2.2453 1.8387 2.7635 5.6562.0315.2323.0801.6987l-11.496 1.5606q.49 2.5205 1.9651 3.695t3.4056.9125q1.437-.1951 2.3506-1.0878.9136-.8928 1.2841-2.6283zm-9.152-3.0594 8.6076-1.1685q-.4382-1.9214-1.3831-2.7836-1.4532-1.3401-3.4418-1.0702-1.7999.2444-2.8629 1.6156-1.063 1.3713-.9197 3.4066zm15.802 7.1094-2.9151-15.281 2.331-.4447.4145 2.1727q1.2032-2.8392 4.383-3.4458 1.3814-.2635 2.6345.012 1.253.2754 1.9823.9714.7293.696 1.1708 1.76.2811.692.6242 2.4906l1.7924 9.396-2.59.494-1.7732-9.2952q-.302-1.5828-.7537-2.3093-.4517-.7266-1.3108-1.0473-.859-.3208-1.895-.1232-1.6547.3157-2.6558 1.5953t-.4411 4.215l1.592 8.3456zm21.45-6.89.8988 2.1822q-1.0312.4806-1.8872.6797-1.3982.3254-2.2715.0623-.8734-.263-1.355-.9105-.4814-.6474-1.0192-2.9588l-2.0283-8.7174-1.8833.4382-.4648-1.9974 1.8833-.4381-.873-3.7523 2.1953-2.1351 1.2316 5.2932 2.5824-.6009.4647 1.9974-2.5824.6009 2.0615 8.86q.2556 1.0986.4642 1.3809t.5585.3964q.3499.1141.9206-.0187.428-.0996 1.1039-.3621zm11.97-5.94 2.7163-.3987q.0127 2.4731-1.3178 4.207t-3.9432 2.4535q-3.2906.9063-5.7765-.5893t-3.4934-5.1534q-1.0425-3.7848.3307-6.4118 1.3732-2.6269 4.4802-3.4827 3.0081-.8285 5.4787.6941t3.4936 5.237q.0622.2259.1726.6817l-11.185 3.0807q.822 2.4326 2.4406 3.3998 1.6186.9672 3.497.4499 1.3981-.3851 2.1844-1.3918.7863-1.0067.922-2.7761zm-9.4784-1.8108 8.3747-2.3067q-.6907-1.8457-1.7422-2.5741-1.6191-1.1342-3.5539-.6013-1.7512.4823-2.6217 1.9832t-.457 3.4989zm16.6084 4.9308-4.9316-14.754 2.2506-.7523.7012 2.0978q.8128-2.9746 3.8832-4.0008 1.3337-.4458 2.6123-.3403 1.2786.1055 2.0944.6977.8158.5923 1.3956 1.5877.3711.6482.9516 2.3848l3.0324 9.0721-2.5007.836-2.9998-8.9749q-.5108-1.5282-1.0556-2.1879-.5449-.6596-1.439-.8627-.8942-.203-1.8945.1313-1.5977.534-2.4188 1.936-.821 1.4019.1262 4.236l2.6934 8.058zm23.17-14.42 2.5366-.6336q.5839 2.6506-.4918 4.7014t-3.4483 2.982q-2.9726 1.1665-5.542-.0676-2.5693-1.234-3.9928-4.8612-.9204-2.3454-.8335-4.4095.087-2.064 1.3304-3.567 1.2434-1.503 3.1116-2.236 2.359-.9258 4.3272-.3213t3.2525 2.634l-2.2418 1.3047q-.9135-1.3253-2.0684-1.7218-1.1549-.3966-2.382.085-1.8546.7278-2.4919 2.5122t.4918 4.6616q1.1452 2.9182 2.7824 3.802 1.6372.884 3.4372.1776 1.4454-.5673 2.0657-1.8335.6204-1.2663.157-3.2088zm14.2-5.51 2.6207-.818q.3987 2.4408-.6446 4.3612t-3.5116 3.0393q-3.1086 1.409-5.7976.32t-4.2554-4.5444q-1.6208-3.5756-.6747-6.3848.946-2.8092 3.8813-4.1397 2.8418-1.2882 5.5198-.17 2.678 1.118 4.2686 4.627.0968.2134.277.6464l-10.567 4.7898q1.1917 2.2743 2.9415 2.9769 1.7498.7025 3.5243-.1018 1.3208-.5987 1.9403-1.7158.6194-1.1171.477-2.886zm-9.6448-.3083 7.9116-3.5863q-.9705-1.7152-2.1228-2.2704-1.7764-.8674-3.6042-.0389-1.6544.75-2.2798 2.3683-.6254 1.6184.0951 3.5273zm14.1048-1.3717 2.1282-1.5612q.9147 1.2916 2.1894 1.5729 1.2747.2812 2.8754-.5458 1.6137-.8338 2.055-1.8944.4413-1.0606-.0159-1.9456-.4102-.7939-1.3352-.893-.6429-.0635-2.8047.4433-2.913.6807-4.154.72-1.241.0394-2.1887-.5344-.9477-.5738-1.4722-1.589-.4774-.924-.4612-1.9298.0162-1.006.476-1.903.3381-.6858 1.137-1.4531.799-.7673 1.8791-1.3254 1.6268-.8405 3.0986-1.0074 1.472-.167 2.471.3309.9992.4978 1.913 1.7239l-2.129 1.4958q-.7076-.9865-1.7651-1.1985-1.0576-.212-2.4241.494-1.6137.8337-2.0278 1.7237-.4141.8899-.0442 1.6057.2353.4555.7099.672.4813.2294 1.2207.1606.4186-.0514 2.3785-.4704 2.8286-.6206 4.0297-.7053t2.1776.433q.9765.5178 1.595 1.715.6052 1.1714.4565 2.559-.1486 1.3876-1.1446 2.6194-.9958 1.2318-2.6226 2.0723-2.6939 1.3918-4.6842 1.0022-1.9903-.3897-3.517-2.3873zm-382.16.24 14.324-16 1.9645 1.7587-14.324 16zm17.11-9.49 1.9813-2.2954 1.996 1.7229-1.9813 2.2954zm-12.051 13.961 10.165-11.776 1.996 1.7229-10.165 11.776zm11.001 6.189-1.1926 2.0366q-1.0068-.5297-1.6837-1.0904-1.1055-.9158-1.425-1.7701-.3195-.8543-.0957-1.6296.2237-.7752 1.7376-2.6027l5.7097-6.8924-1.489-1.2335 1.3083-1.5793 1.489 1.2335 2.4577-2.9668 3.0285.4544-3.467 4.1851 2.0418 1.6914-1.3083 1.5793-2.0418-1.6914-5.8032 7.0052q-.7196.8686-.818 1.2056-.0984.337.0226.6846.121.3475.5723.7213.3384.2803.9566.6593zm11.96 6.01 1.9495 1.933q-1.9703 1.4948-4.1557 1.4717t-4.3294-1.6806q-2.7003-2.0875-2.9965-4.9735-.2963-2.886 2.0242-5.8876 2.4011-3.1059 5.3264-3.5847 2.9253-.4788 5.4749 1.4922 2.4685 1.9083 2.7339 4.7982.2654 2.8899-2.0908 5.9379-.1433.1854-.4416.5473l-9.1786-7.0957q-1.452 2.1177-1.2538 3.993.1982 1.8751 1.7396 3.0666 1.1473.887 2.4244.9115 1.277.0245 2.7736-.9293zm-4.242-8.6674 6.8724 5.3128q1.0615-1.6604 1.0128-2.9386-.0649-1.9758-1.6526-3.2032-1.437-1.111-3.16-.9061-1.7229.2048-3.0726 1.735zm6.012 16.2074 9.0665-12.642 1.9284 1.383-1.3745 1.9165q1.7027-.8158 2.635-.7961.9323.0197 1.6822.5575 1.0832.7769 1.707 2.2698l-2.1637 1.4586q-.4527-1.0277-1.2383-1.5911-.7023-.5037-1.5648-.4824-.8625.0213-1.6384.6005-1.1767.8867-2.1499 2.2436l-4.7467 6.6184zm17.7 9.87q-1.9091.2267-3.3215-.0959-1.4124-.3226-2.7058-1.1817-2.1354-1.4183-2.5894-3.2234-.454-1.8051.6239-3.428.6321-.9518 1.588-1.4511.956-.4993 1.9737-.5092 1.0177-.01 2.0584.3296.7601.2588 2.1712.9673 2.8708 1.4496 4.4194 1.8451.312-.4434.393-.5654.8916-1.3422.634-2.3047-.3476-1.3036-2.007-2.4058-1.5497-1.0293-2.6486-.9766-1.099.0527-2.3686 1.1965l-1.9531-1.7193q1.2087-1.1843 2.443-1.5866 1.2345-.4023 2.8074-.017 1.573.3853 3.2446 1.4956 1.6595 1.1022 2.4373 2.1816t.8728 1.9954q.095.916-.3095 1.9486-.263.6342-1.2356 2.0985l-1.945 2.9285q-2.0344 3.0627-2.433 3.9674-.3986.9046-.4781 1.9245l-2.294-1.5237q.1122-.9103.6224-1.8902zm3.075-5.0268q-1.52-.3062-4.1385-1.553-1.4841-.7044-2.2075-.8331-.7234-.1288-1.3405.1384-.617.2671-.998.8406-.5835.8786-.3075 1.906t1.5572 1.8784q1.269.8429 2.6262.9442 1.357.1013 2.461-.5547.8483-.5093 1.8128-1.9613zm1.345 10.0968 11.314-18.252 2.2411 1.3892-11.314 18.252zm12.85 7.85 7.3187-13.728 2.0811 1.1095-1.0268 1.926q1.1838-.6637 2.584-.7057t2.7704.6885q1.5253.8132 2.1635 1.967.6382 1.1536.4325 2.5047 2.9105-1.5359 5.5216-.1438 2.0423 1.0888 2.538 2.8057.4957 1.7168-.7585 4.0694l-5.024 9.4232-2.3137-1.2336 4.6104-8.6476q.7442-1.396.8454-2.1306.1011-.7346-.2936-1.4265-.3948-.692-1.1962-1.1191-1.4477-.7719-2.9177-.3189t-2.6002 2.573l-4.252 7.9753-2.3267-1.2405 4.755-8.919q.827-1.551.6718-2.6299-.1553-1.0788-1.448-1.7679-.9823-.5237-2.0917-.4512-1.1094.0725-2.015.868-.9054.7955-1.9047 2.6698l-3.7972 7.1223zm33.96 11.49 2.3313 1.4498q-1.5875 1.8964-3.7232 2.361-2.1356.4646-4.5951-.6733-3.0976-1.4331-4.0297-4.1805-.932-2.7474.661-6.1906 1.6484-3.563 4.3934-4.6817t5.6698.2343q2.8317 1.3101 3.7346 4.0682.9029 2.7581-.7148 6.2545-.0984.2128-.3085.632l-10.529-4.8714q-.9434 2.3881-.3322 4.172t2.3794 2.6018q1.3161.609 2.5665.3482t2.4967-1.5242zm-6.0672-7.5038 7.8837 3.6474q.6647-1.8553.3323-3.0905-.5037-1.9116-2.325-2.7542-1.6485-.7627-3.2824-.179t-2.6085 2.3763zm19.6072 16.5738q-1.8269.5988-3.2752.561-1.4482-.0377-2.8857-.625-2.3731-.9693-3.1742-2.6494-.8011-1.6801-.0644-3.4837.432-1.0577 1.2707-1.7358.8387-.678 1.8344-.8884.9958-.2104 2.0829-.0828.7963.1037 2.3193.5201 3.1003.855 4.6964.9373.2185-.4962.2739-.6318.6093-1.4917.167-2.3844-.5978-1.2094-2.4421-1.9627-1.7222-.7035-2.7891-.4351-1.067.2683-2.0861 1.64l-2.2538-1.3003q.9514-1.3994 2.0822-2.0372 1.1308-.6378 2.7488-.5703 1.618.0676 3.4759.8264 1.8443.7534 2.8197 1.6581.9754.9048 1.2492 1.784.2738.8793.0808 1.9714-.1328.6737-.7975 2.301l-1.3294 3.2545q-1.3903 3.4038-1.6028 4.3692-.2124.9655-.0892 1.981l-2.5494-1.0414q-.0695-.9145.2375-1.9759zm2.0234-5.5345q-1.5505-.0004-4.3635-.7064-1.5939-.3979-2.3284-.3815-.7346.0164-1.2868.4-.5523.3837-.8126 1.021-.3989.9764.0744 1.9293.4732.9528 1.897 1.5344 1.4104.576 2.7609.4077 1.3504-.1683 2.3034-1.0292.7311-.6666 1.3903-2.2803zm3.3466 9.7045 5.2217-14.654 2.2354.7965-.7424 2.0836q2.4749-1.8395 5.5244-.7528 1.3247.472 2.2658 1.3439.9411.8718 1.2178 1.8413.2766.9694.1187 2.1106-.1078.739-.7224 2.4639l-3.2107 9.0105-2.4838-.885 3.1763-8.914q.5408-1.5178.519-2.373-.0218-.8553-.6002-1.5669-.5784-.7115-1.5719-1.0655-1.5868-.5654-3.098.0313-1.5111.5968-2.5142 3.4116l-2.8518 8.0032zm21.43-12.08.9268-2.8871 2.5105.806-.9268 2.887zm-5.6371 17.56 4.755-14.812 2.5105.806-4.755 14.812zm6.3471 2.05 4.2855-14.955 2.2812.6537-.6093 2.1263q2.3537-1.9922 5.4658-1.1004 1.3518.3874 2.3462 1.198.9943.8107 1.3316 1.7606.3373.95.2518 2.0988-.0609.7445-.5653 2.5046l-2.6351 9.1953-2.5347-.7263 2.6068-9.0967q.4439-1.549.368-2.4012-.0757-.8522-.698-1.5257-.6221-.6736-1.636-.9641-1.6194-.464-3.0898.227t-2.2936 3.5636l-2.3405 8.1674zm15.31 5.66 2.4052.9652q-.1186 1.1915.4681 1.8887.7848.9402 2.4376 1.3344 1.7811.4249 2.92-.0565t1.7866-1.682q.3864-.7362.9704-3.2474-2.1538 1.5795-4.6615.9814-3.1205-.7443-4.2933-3.4035-1.1728-2.6591-.4218-5.8081.5166-2.1658 1.737-3.8098t2.9473-2.2863q1.727-.6423 3.736-.163 2.6788.639 3.9005 3.2194l.435-1.8238 2.3653.5641-3.12 13.08q-.8428 3.5337-1.9142 4.8368t-2.8355 1.786q-1.7642.4827-4.044-.061-2.7072-.6458-4.0838-2.2618-1.3765-1.6159-.7349-4.053zm4.2914-8.5843q-.7103 2.978.146 4.6279.8564 1.65 2.6374 2.0748 1.7668.4214 3.2883-.6538t2.2148-3.982q.6628-2.7785-.2333-4.4831t-2.6344-2.1192q-1.7098-.4079-3.238.6959t-2.1809 3.8395zm21.2286 5.0043q.718-4.2612 3.4327-5.9132 2.2662-1.371 5.1118-.8915 3.1634.533 4.8219 2.9442t1.0427 6.0657q-.499 2.9612-1.6734 4.5088t-3.0298 2.2005q-1.8555.653-3.8633.3146-3.2212-.5428-4.8593-2.9431t-.9833-6.286zm2.6723.4503q-.4966 2.9467.542 4.6295t2.9886 2.0114q1.9356.3262 3.4695-.9306t2.0426-4.2757q.4795-2.8456-.5663-4.5296-1.0458-1.684-2.9669-2.0077-1.95-.3286-3.4815.9137-1.5314 1.2423-2.028 4.189zm14.1177 10.1097 1.7952-13.386-2.3084-.3096.2726-2.0326 2.3084.3096.22-1.6406q.2083-1.5535.5854-2.2714.5138-.9657 1.5494-1.4697 1.0357-.504 2.7488-.2743 1.1034.148 2.4041.5885l-.6976 2.2268q-.7936-.2542-1.5195-.3516-1.1905-.1597-1.7523.2823-.5618.442-.7487 1.8357l-.1908 1.4228 3.0053.403-.2726 2.0326-3.0053-.403-1.7952 13.386zm15.44 7.85 1.6578-21.455 2.3952.185-.1557 2.0156q.9385-1.1175 2.0504-1.6266 1.1119-.5091 2.6308-.3918 1.9863.1535 3.4262 1.2932t2.07 3.0616q.6302 1.922.4587 4.142-.184 2.3805-1.1856 4.2204-1.0017 1.84-2.7086 2.7291t-3.5033.7504q-1.3144-.1015-2.3158-.7372-1.0014-.6357-1.6077-1.5347l-.5835 7.5507zm3.4324-13.428q-.2314 2.994.8702 4.519t2.825 1.6581q1.7526.1354 3.1158-1.2505 1.3633-1.3859 1.6036-4.4968.2291-2.9648-.8764-4.5341t-2.7997-1.7002q-1.6796-.1298-3.0934 1.3404-1.4138 1.4701-1.6452 4.4642zm13.6776 8.678.683-21.464 2.6354.0839-.245 7.7012q1.9127-2.0789 4.7238-1.9894 1.7276.055 2.9798.7763 1.2521.7213 1.763 1.9394.5108 1.218.4381 3.502l-.3135 9.8534-2.6354-.0839.3135-9.8534q.0629-1.9765-.765-2.9042-.8278-.9277-2.3943-.9775-1.1713-.0373-2.2228.5375-1.0515.5747-1.5238 1.6003-.4724 1.0255-.5306 2.8557l-.2707 8.5064zm16.67.4-.0723-15.556 2.373-.011.011 2.3584q.9005-1.6595 1.6671-2.1904.7666-.531 1.6894-.5352 1.333-.006 2.7139.837l-.8968 2.4505q-.9695-.5668-1.9362-.5623-.8643.004-1.5503.5272-.686.5233-.9748 1.4474-.4329 1.4083-.4251 3.0782l.0378 8.1444zm20.11-2.39q-1.4125 1.3042-2.7453 1.8721-1.3328.5679-2.8842.6316-2.5613.1052-3.9885-1.0896-1.4272-1.1949-1.5072-3.1415-.0469-1.1416.434-2.107.4807-.9654 1.2988-1.5708.8181-.6054 1.86-.9414.7672-.2368 2.3255-.4914 3.175-.5116 4.661-1.1004-.008-.542-.0137-.6885-.066-1.61-.8396-2.2379-1.0466-.8513-3.0371-.7695-1.8588.0764-2.7175.764-.8587.6877-1.2152 2.359l-2.5904-.2454q.2833-1.6683 1.0465-2.7186t2.2628-1.6616q1.4996-.6114 3.5048-.6938 1.9905-.0818 3.2538.3355t1.8779 1.103q.6146.6858.8933 1.7592.1594.6679.2315 2.4242l.1443 3.5127q.1509 3.6737.3592 4.64.2083.9664.7426 1.8388l-2.7516.113q-.4435-.8027-.6057-1.8957zm-.4612-5.8747q-1.4103.6444-4.2621 1.172-1.615.301-2.2762.6213-.6613.3204-1.004.8989-.3428.5785-.3145 1.2664.0433 1.0538.8698 1.7236t2.3633.6066q1.5222-.0625 2.6803-.7771 1.1582-.7147 1.6668-1.8937.3878-.9103.3162-2.652zm5.6412 2.8747 2.5638-.6275q.3505 1.5434 1.4204 2.2912 1.0699.7478 2.8654.5966 1.81-.1524 2.6237-.9633.8137-.8109.7301-1.8035-.075-.8904-.8916-1.3361-.5696-.3048-2.7608-.6642-2.9516-.4865-4.113-.9252t-1.8175-1.3317q-.6558-.893-.7517-2.0315-.0873-1.0364.3127-1.9594.4-.923 1.1683-1.5758.575-.5042 1.6068-.9071 1.0318-.403 2.2434-.505 1.8246-.1536 3.2482.2557 1.4236.4093 2.1561 1.2517.7325.8424 1.1072 2.325l-2.5395.5667q-.276-1.1822-1.1718-1.783-.8958-.6008-2.4285-.4718-1.81.1525-2.5332.816-.7232.6637-.6556 1.4665.043.5109.3986.8925.3567.3963 1.0662.6159.4064.1127 2.3774.476 2.8507.5096 3.9927.8912t1.8459 1.2337q.7038.8522.817 2.195.1106 1.3137-.558 2.5387t-2.0603 1.9816q-1.3916.7567-3.2162.9103-3.0215.2545-4.711-.8675t-2.335-3.5519zm26.31-3.1 2.7453-.0102q-.3375 2.45-1.9 3.9782t-4.2507 1.8708q-3.3857.4315-5.6349-1.4009t-2.7288-5.5959q-.4963-3.8943 1.2349-6.3004t4.928-2.8136q3.0951-.3945 5.3253 1.4625t2.7172 5.6786q.0296.2325.0744.6993l-11.508 1.4667q.4694 2.5244 1.9349 3.711t3.3981.9403q1.4386-.1834 2.3594-1.0686.9209-.8852 1.3055-2.6177zm-9.1267-3.134 8.6168-1.0982q-.4225-1.9249-1.3603-2.7948-1.4423-1.352-3.433-1.0982-1.8018.2296-2.876 1.5922t-.9475 3.399zm13.9267 2.844 2.501-.8438q.4808 1.5079 1.6106 2.1618 1.1298.6538 2.9058.35 1.7904-.3061 2.532-1.1834t.5737-1.8592q-.1506-.8808-1.0023-1.2552-.5935-.2552-2.8074-.4264-2.9824-.233-4.177-.5711-1.1947-.3381-1.9243-1.172-.7296-.8337-.9222-1.96-.1753-1.0251.1445-1.979.3199-.9537 1.0297-1.6695.53-.5514 1.5236-1.0408.9938-.4895 2.1922-.6945 1.8048-.3086 3.2582-.0222 1.4534.2865 2.255 1.0633.8016.7769 1.3014 2.2221l-2.482.7812q-.3757-1.1544-1.3196-1.6766-.9438-.5222-2.4599-.263-1.7904.3063-2.4544 1.0292-.664.7228-.5282 1.517.0864.5053.4733.8553.3892.3644 1.1148.5227.4145.0777 2.4094.2715 2.8838.2648 4.054.5476 1.1705.2828 1.9445 1.0718.774.789 1.0012 2.1174.2222 1.2995-.3395 2.577-.5617 1.2775-1.8838 2.15-1.322.8726-3.127 1.1813-2.9887.5111-4.7677-.4627-1.779-.9738-2.6295-3.3399zm34.17-4.12q-1.1357 1.5512-2.3347 2.3645-1.1989.8133-2.7092 1.1738-2.4934.5952-4.1235-.3034t-2.0824-2.7935q-.2653-1.1114.0212-2.151.2864-1.0398.973-1.791.6867-.7513 1.6446-1.2812.7075-.3797 2.1879-.9288 3.0177-1.112 4.3628-1.9751-.1116-.5306-.1456-.673-.3741-1.5674-1.2538-2.035-1.1906-.6346-3.1283-.172-1.8095.4319-2.5202 1.2717-.7107.8398-.7396 2.5485l-2.5893.2566q-.0424-1.6917.505-2.869.5472-1.1773 1.9016-2.0653t3.3063-1.354q1.9378-.4624 3.2577-.2956t2.0548.7219q.7348.555 1.2145 1.555.2846.6248.6928 2.3346l.8162 3.4196q.8536 3.5763 1.2436 4.4847.39.9084 1.0819 1.6619l-2.6787.6394q-.5894-.7027-.9585-1.7441zm-1.5809-5.6768q-1.2603.9032-3.9577 1.9688-1.5271.6055-2.1145 1.0469-.5874.4414-.8127 1.075-.2252.6336-.0654 1.3032.2449 1.0259 1.1846 1.5244.9398.4986 2.4358.1415 1.4818-.3537 2.4812-1.2775.9994-.9238 1.2721-2.1786.2058-.9678-.199-2.6633zm8.3809 5.9268-4.2879-14.954 2.2811-.654.6097 2.1261q.9409-2.9366 4.0528-3.8289 1.3518-.3876 2.6246-.2268 1.2728.1608 2.0622.7878.7893.627 1.3255 1.6467.3427.6637.8474 2.4238l2.6365 9.1949-2.5346.7267-2.6083-9.0963q-.4442-1.5489-.96-2.2315-.5157-.6826-1.4002-.9242-.8846-.2416-1.8984.049-1.6193.4644-2.5003 1.8295-.881 1.365-.0574 4.2376l2.3418 8.167zm25.59-7.9-.6256-1.8605q-.6647 2.6653-3.386 3.5803-1.7634.5929-3.5689.1182t-3.2036-1.9442q-1.398-1.4694-2.159-3.7326-.7423-2.2077-.611-4.2532t1.281-3.4984q1.1496-1.4529 2.9685-2.0644 1.3329-.4481 2.5633-.236t2.1864.8954l-2.4556-7.3033 2.4854-.8357 6.8438 20.355zm-10.375-4.7025q.9524 2.8325 2.6179 3.8333 1.6656 1.0009 3.2901.4547 1.6384-.5509 2.3334-2.276.695-1.725-.2294-4.4741-1.0177-3.0268-2.6602-4.051t-3.3503-.4498q-1.6662.5602-2.3264 2.2967-.6602 1.7365.3249 4.6662zm21.645-4.3575 2.2555-1.3709q.7993 1.3661 2.0448 1.7567 1.2456.3906 2.9119-.2945 1.6799-.6908 2.2115-1.7092.5315-1.0184.1527-1.9397-.3398-.8265-1.2528-1.0054-.635-.119-2.8326.1985-2.961.4256-4.2008.3573-1.2397-.0683-2.1342-.7222-.8944-.6538-1.329-1.7105-.3955-.9619-.2922-1.9626t.6392-1.8546q.3963-.654 1.2588-1.349.8624-.6952 1.9869-1.1576 1.6935-.6963 3.1743-.735t2.433.5438q.9523.5825 1.7564 1.8832l-2.2507 1.3056q-.6194-1.044-1.6546-1.347-1.0353-.3029-2.4578.282-1.68.6908-2.1696 1.5415-.4897.8508-.1833 1.5958.195.4742.649.731.4596.2704 1.2022.266.4215-.015 2.4104-.2626 2.8718-.373 4.0757-.3533 1.204.0197 2.1318.6201.928.6005 1.4404 1.8468.5014 1.2193.233 2.5888-.2684 1.3695-1.3673 2.5103t-2.7924 1.8372q-2.8044 1.1531-4.7534.5925-1.949-.5607-3.297-2.6832zm24.15-10.89 2.6142-.8383q.4176 2.4376-.6109 4.3661-1.0285 1.9284-3.488 3.0663-3.0976 1.4331-5.795.365-2.6973-1.0682-4.2904-4.5115-1.6484-3.563-.724-6.3793.9243-2.8164 3.849-4.1696 2.8318-1.3101 5.5185-.2128 2.6866 1.0974 4.3043 4.5938.0984.2127.2819.6443l-10.529 4.8714q1.2093 2.265 2.9646 2.954 1.7552.689 3.5234-.129 1.3162-.609 1.9269-1.7309.6108-1.1219.4547-2.8896zm-9.647-.2336 7.8837-3.6474q-.9837-1.7077-2.1403-2.254-1.783-.8537-3.6044-.011-1.6485.7627-2.2614 2.3859-.6129 1.6232.1224 3.5265zm17.207 2.1636-7.1642-13.809 2.1064-1.0928 1.0186 1.9634q.3408-3.0647 3.2144-4.5556 1.2482-.6476 2.5277-.742 1.2794-.0946 2.1773.3638.8979.4583 1.6254 1.3516.4673.5827 1.3106 2.208l4.4051 8.4907-2.3405 1.2143-4.3579-8.3997q-.742-1.4303-1.3828-1.9973-.6407-.567-1.5556-.6287-.9149-.0617-1.8511.424-1.4953.7758-2.0886 2.2884-.5933 1.5125.7829 4.165l3.9126 7.5415zm18.62-12.69 1.4737 1.8433q-.8554.75-1.6215 1.1809-1.2512.7037-2.1633.6957-.912-.008-1.5556-.4948-.6435-.4868-1.8068-2.5551l-4.3875-7.801-1.6853.9478-1.0053-1.7875 1.6853-.9478-1.8886-3.358 1.5099-2.6642 2.6641 4.7368 2.3109-1.2997 1.0053 1.7875-2.3109 1.2997 4.4593 7.9287q.553.983.8322 1.1958.2793.2126.6471.2242.3679.0116.8786-.2756.383-.2154.9584-.6567zm9.89-9.01 2.5034-1.1269q.689 2.3752-.1161 4.4071-.8052 2.0318-3.1211 3.439-2.917 1.7723-5.7172 1.0141-2.8003-.7581-4.7704-4.0005-2.0385-3.355-1.4367-6.2575.6018-2.9025 3.356-4.5759 2.6665-1.6202 5.4594-.8318 2.793.7883 4.7935 4.0808.1217.2003.3526.6085l-9.9148 6.0243q1.4563 2.1147 3.2779 2.602 1.8216.4872 3.4866-.5244 1.2394-.753 1.72-1.9365.4808-1.1834.127-2.9224zm-9.612.8525 7.4236-4.5106q-1.1695-1.5862-2.3802-1.999-1.8677-.6478-3.5827.3942-1.5523.9432-1.9788 2.625t.5181 3.4904zm17.342.2075-8.6662-12.919 1.9707-1.322 1.2322 1.8369q-.005-3.0836 2.6837-4.887 1.1678-.7834 2.4286-1.0206 1.2608-.2372 2.2044.1176.9436.3549 1.7666 1.161.5297.5267 1.5497 2.0473l5.3286 7.9438-2.1897 1.4688-5.2715-7.8586q-.8976-1.3382-1.5978-1.8298-.7002-.4916-1.6162-.4504-.916.0412-1.7919.6288-1.399.9384-1.8191 2.5078-.42 1.5694 1.2446 4.051l4.7329 7.0558zm18.62-19.99 2.2892-1.2632q1.2443 2.4121.7309 4.6702-.5135 2.2581-2.5678 3.7668-2.5738 1.8902-5.3738 1.3566-2.8-.5336-5.1063-3.6741-1.4914-2.0307-1.937-4.048-.4455-2.0173.3707-3.7889.8163-1.7717 2.4337-2.9596 2.0425-1.5 4.1-1.4207 2.0574.0793 3.8194 1.7114l-1.832 1.8362q-1.2229-1.0465-2.4409-1.1335-1.2179-.087-2.2805.6934-1.6057 1.1792-1.7639 3.0674-.1581 1.8882 1.6713 4.3794 1.8555 2.5266 3.6647 2.9609 1.8092.4342 3.3677-.7103 1.2515-.919 1.5262-2.302.2747-1.383-.6715-3.1418zm12.41-8.9 2.3361-1.4422q.9914 2.2658.4567 4.3849-.5348 2.1191-2.6486 3.8149-2.6623 2.1358-5.5373 1.7473-2.875-.3884-5.2491-3.3478-2.4566-3.0622-2.2364-6.0182.2201-2.956 2.7339-4.9726 2.4337-1.9524 5.3054-1.5331 2.8715.4193 5.2823 3.4244.1467.1828.4286.5576l-9.0494 7.2598q1.7184 1.908 3.5878 2.1547 1.8694.2468 3.3891-.9723 1.1312-.9075 1.4544-2.1433.3232-1.2358-.2533-2.9142zm-9.4202 2.0923 6.7756-5.4356q-1.3654-1.4211-2.6194-1.6733-1.9359-.4-3.5013.8558-1.4168 1.1366-1.6215 2.8596-.2047 1.7229.9666 3.3936zm13.3602-4.8523 1.692-2.0258q1.1976 1.0348 2.5026 1.0023t2.6608-1.2191q1.3669-1.1962 1.5411-2.3317.1742-1.1355-.4818-1.8851-.5885-.6724-1.5104-.547-.6394.0925-2.6167 1.1028-2.6649 1.359-3.8603 1.6946-1.1954.3356-2.253.006-1.0576-.33-1.81-1.1897-.685-.7827-.9104-1.7631-.2254-.9805.006-1.9616.1639-.747.7556-1.6833.5918-.9364 1.5067-1.7371 1.378-1.206 2.767-1.7207 1.389-.5148 2.4782-.271t2.2704 1.2152l-1.7085 1.9624q-.9233-.7882-2.0009-.7405-1.0776.0476-2.235 1.0606-1.3669 1.1962-1.5556 2.1595-.1886.9632.342 1.5695.3376.3858.8502.4822.5223.1074 1.2237-.1366.3941-.1502 2.1964-1.0268 2.5974-1.2804 3.7432-1.6505 1.1458-.37 2.218-.1015t1.9595 1.2827q.8683.9921 1.0565 2.375.1883 1.3828-.4834 2.8174t-2.0495 2.6405q-2.2818 1.997-4.3074 2.0957-2.0257.0986-3.9867-1.4749zm-436.78 101.11 6.937-13.924 2.1109 1.0516-.9733 1.9536q1.1651-.696 2.5636-.7767 1.3985-.0806 2.7883.6117 1.5472.7708 2.217 1.9064.6699 1.1356.5015 2.492 2.867-1.6158 5.5155-.2963 2.0716 1.0321 2.6145 2.7345.543 1.7025-.6459 4.0888l-4.7618 9.5582-2.347-1.1692 4.3699-8.7716q.7055-1.416.7863-2.153.0808-.7372-.3329-1.4179-.4137-.6807-1.2266-1.0857-1.4685-.7316-2.9254-.2381t-2.5281 2.6437l-4.0302 8.0898-2.3601-1.1758 4.5071-9.047q.7838-1.5733.5989-2.6474t-1.4961-1.7273q-.9965-.4965-2.1034-.3933-1.107.1031-1.9902.9233t-1.8303 2.7213l-3.5991 7.2244zm34.24 10.68 2.3597 1.4032q-1.5495 1.9276-3.6755 2.4345-2.126.507-4.6076-.5818-3.1255-1.3714-4.112-4.0996-.9865-2.7283.5378-6.2026 1.5772-3.595 4.2994-4.768t5.6733.1216q2.8572 1.2536 3.8148 3.993.9575 2.7397-.5903 6.2676-.0942.2146-.2959.638l-10.624-4.6611q-.8958 2.4063-.2492 4.1776.6465 1.7713 2.4306 2.554 1.328.5826 2.573.297t2.4659-1.5735zm-6.2152-7.3817 7.9546 3.49q.6277-1.8681.2708-3.0964-.5416-1.9012-2.3793-2.7075-1.6634-.7298-3.2853-.1137-1.622.616-2.5608 2.4277zm19.9252 16.2517q-1.8186.6235-3.2672.6054-1.4486-.018-2.8939-.5856-2.3861-.937-3.2099-2.6061-.8238-1.6691-.1117-3.4825.4177-1.0635 1.247-1.753.8294-.6893 1.8222-.9132.9928-.2238 2.0816-.111.7976.093 2.3261.4886 3.1116.8128 4.7087.8735.2118-.4992.2653-.6355.589-1.4998.1346-2.3865-.6142-1.2012-2.4685-1.9294-1.7316-.68-2.7948-.3972-1.0632.2828-2.0636 1.6682l-2.2712-1.2696q.9323-1.4122 2.0544-2.0653 1.122-.6532 2.7408-.6076 1.6188.0456 3.4868.7792 1.8543.7282 2.8419 1.6197.9876.8914 1.2733 1.7669.2857.8754.1076 1.97-.1236.6754-.7661 2.3116l-1.2851 3.2723q-1.344 3.4223-1.5433 4.3906-.1993.9683-.0623 1.9821l-2.5633-1.0066q-.082-.9134.2106-1.9789zm1.948-5.5615q-1.5504.0206-4.3727-.647-1.5991-.3763-2.3334-.3499-.7343.0264-1.2813.4175-.547.391-.7987 1.0319-.3855.9817.1006 1.928.486.9463 1.9177 1.5085 1.418.5568 2.766.3702 1.348-.1867 2.2893-1.0603.722-.6765 1.3592-2.299zm3.472 9.6615 5.1165-14.691 2.241.7805-.7275 2.0889q2.4616-1.8572 5.5188-.7925 1.328.4625 2.2754 1.3276.9474.8651 1.231 1.8325.2835.9674.1338 2.1096-.1025.7399-.7047 2.469l-3.146 9.0333-2.49-.8672 3.1123-8.9364q.53-1.5217.502-2.3768-.028-.855-.6115-1.5624-.5835-.7073-1.5795-1.0542-1.5908-.554-3.0976.0535-1.5068.6076-2.4896 3.4296l-2.7943 8.0234zm21.42-12.19.919-2.8896 2.5126.799-.9189 2.8897zm-5.589 17.575 4.7145-14.825 2.5127.799-4.7145 14.825zm6.349 2.035 4.3104-14.948 2.2801.6575-.6129 2.1253q2.3571-1.9882 5.4676-1.0912 1.3512.3897 2.3442 1.202.993.8124 1.3287 1.763.3357.9505.2484 2.0992-.0622.7444-.5695 2.5037l-2.6504 9.191-2.5335-.7307 2.622-9.0924q.4464-1.5482.372-2.4006-.0743-.8523-.6954-1.5269-.6211-.6745-1.6345-.9668-1.6186-.4667-3.0902.2218-1.4716.6886-2.2995 3.5598l-2.3541 8.1634zm15.29 5.69 2.3974.9843q-.128 1.1906.4531 1.8923.7773.9463 2.427 1.3537 1.7776.439 2.9202-.0333 1.1426-.4723 1.8-1.668.3923-.733.996-3.2394-2.1661 1.5624-4.6691.9443-3.1145-.769-4.2662-3.4374t-.3757-5.8113q.5338-2.1616 1.7672-3.7959t2.9653-2.2628q1.7319-.6285 3.7371-.1334 2.6736.6602 3.8749 3.2502l.4495-1.8203 2.3607.583-3.2236 13.055q-.8709 3.5268-1.9525 4.8214t-2.8496 1.7633q-1.768.4688-4.0433-.093-2.702-.6672-4.0657-2.294t-.7028-4.0589zm4.3593-8.55q-.734 2.9723.1094 4.629t2.6209 2.0956q1.7634.4354 3.2934-.6277 1.5299-1.0632 2.2463-3.9643.6847-2.7732-.1978-4.4848-.8825-1.7117-2.6175-2.1401-1.7066-.4214-3.2435.6702-1.537 1.0916-2.2112 3.822zm24.4007-5.07.59-2.9743 2.5863.513-.59 2.9743zm-3.5884 18.09 3.0269-15.259 2.5863.513-3.0269 15.259zm6.5284 1.31 2.6136-15.336 2.3393.3987-.3716 2.1805q2.1202-2.2391 5.3115-1.6952 1.3863.2362 2.4638.9325t1.5173 1.6034q.4398.9071.4813 2.0584.0214.7466-.2862 2.5516l-1.607 9.4295-2.5992-.443 1.5898-9.3284q.2707-1.5884.1015-2.427-.169-.8387-.8616-1.4397t-1.7323-.7781q-1.6606-.283-3.046.5656t-1.8875 3.7944l-1.4274 8.3753zm35.45-.67 2.5383.6268q-.724 2.6158-2.6341 3.925t-4.4427 1.0224q-3.173-.3597-4.8665-2.6523t-1.2547-6.1644q.2838-2.5035 1.3262-4.2871 1.0425-1.7836 2.8446-2.5302 1.8021-.7467 3.7962-.5207 2.5181.2854 3.9748 1.7404t1.6424 3.8496l-2.5917.1043q-.1874-1.5986-1.0226-2.4894-.8352-.8907-2.1451-1.0392-1.9795-.2243-3.3776 1.0546-1.398 1.279-1.7461 4.3501-.353 3.1148.6805 4.662 1.0335 1.5471 2.9548 1.765 1.5429.1748 2.6835-.6542t1.6398-2.7626zm3.8-1.68q.3282-4.3088 2.8816-6.2004 2.1323-1.5711 5.0097-1.3519 3.1987.2437 5.0693 2.4943t1.5891 5.946q-.2281 2.9943-1.2571 4.642-1.029 1.6478-2.8176 2.4664-1.7885.8187-3.8188.664-3.2572-.2481-5.1064-2.4898t-1.5499-6.1707zm2.7021.2059q-.227 2.9796.96 4.5612t3.1588 1.7318q1.9572.149 3.3707-1.2417 1.4134-1.3908 1.646-4.4435.2192-2.8774-.975-4.4595t-3.137-1.7301q-1.9718-.1503-3.3842 1.226-1.4123 1.3762-1.6393 4.3558zm14.3379 8.8141.5764-15.546 2.3714.0879-.082 2.2104q1.8077-2.4982 5.0428-2.3783 1.4053.0521 2.565.6008t1.7148 1.3902q.5551.8415.7475 1.9773.1193.7374.0514 2.5672l-.3543 9.559-2.635-.0978.3507-9.4564q.0597-1.6102-.2182-2.4194-.2778-.8092-1.0433-1.314-.7655-.5048-1.8195-.5438-1.6834-.0624-2.9453.9608t-1.3726 4.0095l-.3148 8.4903zm22.47-1.81.3629 2.332q-1.115.2258-1.994.219-1.4354-.0111-2.223-.4713-.7874-.4602-1.104-1.2024-.3165-.7422-.2982-3.1152l.0691-8.9499-1.9335-.0149.0158-2.0507 1.9335.015.0297-3.8525 2.6342-1.5617-.042 5.4344 2.6513.0205-.0158 2.0507-2.6513-.0205-.0702 9.0964q-.009 1.128.128 1.4512.1367.3233.4501.5162.3135.1929.8994.1974.4395.003 1.158-.0936zm13.09-2.86 2.7313.2778q-.5926 2.401-2.3068 3.757-1.7142 1.3558-4.4235 1.4146-3.4123.074-5.4569-1.9842t-2.1269-5.8513q-.0851-3.9248 1.8889-6.1361t5.1959-2.2811q3.1194-.0676 5.1425 2.013t2.1066 5.9323q.005.2343.0006.7032l-11.599.2515q.202 2.5597 1.535 3.8934 1.3329 1.3337 3.2807 1.2915 1.4498-.0314 2.4585-.8152 1.0086-.7837 1.5729-2.4663zm-8.7476-4.074 8.6845-.1883q-.2183-1.9586-1.0597-2.922-1.2925-1.4958-3.2989-1.4523-1.816.0394-3.0271 1.2818t-1.2988 3.2809zm13.1476 8.964 5.1989-8.4058-5.6884-7.149 3.2902-.1936 2.5978 3.501q.7338.9987 1.1845 1.6765.5866-1.003 1.0838-1.7806l2.4016-3.8244 3.144-.185-4.9366 7.6274 6.2596 7.8784-3.2317.1901-3.4717-4.6381-.9247-1.2516-3.7194 6.3671zm22.25-3.93.5793 2.2878q-1.089.329-1.9647.4045-1.4303.1232-2.2573-.2614-.827-.3845-1.2116-1.0939-.3845-.7093-.5882-3.0736l-.768-8.9172-1.9265.166-.176-2.0433 1.9265-.1659-.3306-3.8383 2.4766-1.8012.4663 5.4145 2.6416-.2275.176 2.0432-2.6416.2275.7807 9.0631q.0968 1.1238.263 1.433.1664.309.4965.4717t.9139.1125q.4378-.0377 1.1442-.2015zm9.02-6.35q-.5784-4.2824 1.524-6.6653 1.7574-1.9816 4.6172-2.3678 3.1791-.4294 5.4783 1.3813t2.7952 5.4834q.4019 2.9759-.2605 4.8022-.6624 1.8263-2.2407 3.0002t-3.5961 1.4464q-3.2372.4372-5.5136-1.3691t-2.8038-5.7113zm2.6856-.3627q.4 2.9614 1.8909 4.2604t3.4507 1.0343q1.9452-.2627 3.0372-1.9179t.6823-4.6892q-.3863-2.8598-1.8844-4.1578t-3.429-1.0372q-1.9598.2647-3.0537 1.9053-1.094 1.6407-.694 4.6021zm16.4744 5.4827-2.1942-13.326-2.2982.3784-.3332-2.0235 2.2982-.3784-.2689-1.6333q-.2546-1.5466-.1038-2.3434.2093-1.0736 1.0524-1.8583.8432-.7846 2.5488-1.0654 1.0985-.1809 2.4711-.1396l-.0166 2.3335q-.8332-.0113-1.5559.1077-1.1852.1951-1.5934.782-.4081.5867-.1796 1.9743l.2332 1.4165 2.992-.4926.3332 2.0235-2.992.4926 2.1942 13.326zm25.64-4.91-.4117-1.9192q-.9611 2.5733-3.7683 3.1755-1.819.3902-3.5594-.2851-1.7404-.6754-2.964-2.2931-1.2234-1.6177-1.7242-3.9523-.4886-2.2773-.1274-4.295.3612-2.0175 1.6674-3.3315t3.1824-1.7165q1.375-.295 2.5736.0547 1.1986.3496 2.0715 1.1362l-1.6162-7.5337 2.5637-.55 4.5044 20.997zm-9.778-5.8426q.6268 2.9218 2.1689 4.1041t3.2178.8228q1.6901-.3625 2.5752-1.9982.8851-1.6356.2767-4.4715-.6698-3.1223-2.1863-4.325t-3.2782-.825q-1.7187.3688-2.5706 2.0198-.8518 1.651-.2035 4.673zm11.868-13.5874-.716-2.9465 2.5623-.6225.7159 2.9465zm4.3542 17.921-3.6729-15.117 2.5622-.6225 3.6729 15.117zm4.2558-5.781 2.4107-1.075q.6203 1.4561 1.8065 2.001 1.1862.5449 2.9258.0757 1.7537-.473 2.4097-1.4161.656-.943.3966-1.9048-.2327-.8627-1.1158-1.1556-.6149-.1983-2.835-.1609-2.991.0481-4.2122-.1763-1.2212-.2244-2.026-.986-.8046-.7615-1.1021-1.8646-.2709-1.0042-.042-1.9838.2288-.9797.8683-1.759.4757-.5987 1.419-1.1793.9434-.5807 2.1173-.8973 1.7679-.4768 3.2417-.328 1.4738.1486 2.3449.8467.871.6982 1.5044 2.09l-2.3976 1.0108q-.4825-1.114-1.4712-1.5452-.9887-.4312-2.4737-.0307-1.7537.473-2.347 1.255-.5931.782-.3833 1.56.1335.495.5515.807.4217.3263 1.159.4157.42.0384 2.4242.0441 2.8959-.007 4.0876.1644 1.1918.1717 2.0364.8845t1.1956 2.014q.3433 1.2729-.096 2.5975-.4393 1.3246-1.6735 2.3175-1.2342.9929-3.0021 1.4697-2.9276.7896-4.7902-.0128-1.8626-.8024-2.9315-3.0782zm24.72-8.19 2.5773-.4398q.3816 2.6872-.8461 4.6507t-3.6641 2.7124q-3.0524.9383-5.521-.4867t-3.6135-5.1494q-.7403-2.4083-.4975-4.4599t1.5965-3.456q1.3536-1.4046 3.2718-1.9942 2.4223-.7447 4.3391.007 1.9168.7517 3.0438 2.8726l-2.334 1.1313q-.8107-1.3906-1.9322-1.8734-1.1215-.4828-2.3817-.0954-1.9042.5853-2.6748 2.3164-.7705 1.731.1377 4.6854.921 2.9964 2.4867 4.0016t3.414.437q1.4841-.4562 2.1985-1.672.7144-1.2157.3994-3.1877zm2.81-3.06q-1.4212-4.0809.1633-6.8354 1.3267-2.2924 4.052-3.2415 3.0294-1.0551 5.6436.2604t3.8331 4.8153q.9877 2.8359.703 4.7576-.2847 1.9217-1.597 3.387t-3.2351 2.1349q-3.0849 1.0744-5.6759-.2414t-3.887-5.037zm2.5592-.8913q.9828 2.822 2.703 3.7974 1.7202.9753 3.5877.325 1.8537-.6456 2.5935-2.4855.7398-1.8398-.2671-4.731-.9491-2.7252-2.6762-3.698-1.7271-.973-3.567-.3322-1.8675.6504-2.6121 2.4764-.7446 1.826.2382 4.648zm26.1608-1.3787-.8353-2.127q-.7269 3.1182-3.6311 4.2587-1.2817.5033-2.5857.4489-1.304-.0545-2.1344-.586-.8304-.5317-1.4716-1.523-.4338-.6638-1.0495-2.2318l-3.5233-8.9716 2.4542-.9638 3.1538 8.0308q.755 1.9225 1.1674 2.5317.612.877 1.5787 1.1347.9668.2577 2.0712-.176t1.8503-1.3797q.7458-.946.7652-2.0789.0194-1.1328-.7088-2.9872l-3.0467-7.7582 2.4542-.9638 5.6865 14.48zm5.98-2.47-6.1383-14.294 2.1805-.9364.9306 2.167q.1814-1.8792.68-2.6672.4985-.788 1.3464-1.1522 1.2248-.526 2.8253-.2887l.1307 2.6062q-1.1138-.1434-2.002.238-.7942.341-1.2217 1.0906-.4274.7494-.3324 1.713.151 1.4656.81 3l3.2137 7.4837zm6.31-7.75 2.1918-1.4706q.8597 1.3289 2.1215 1.6633 1.2618.3344 2.8958-.4247 1.6473-.7654 2.1327-1.8065.4854-1.0412.0657-1.9446-.3765-.8104-1.2966-.9482-.6397-.0905-2.8209.3253-2.939.5578-4.1805.545-1.2416-.0126-2.1644-.6257-.9228-.6131-1.4043-1.6493-.4382-.9432-.3799-1.9475.0583-1.0043.5554-1.8813.3666-.671 1.1971-1.4042.8305-.7331 1.9331-1.2454 1.6606-.7715 3.1382-.8766t2.455.4343q.9774.5393 1.839 1.8027l-2.19 1.4051q-.6655-1.0153-1.7133-1.2715t-2.4427.3919q-1.6473.7653-2.0983 1.637-.451.8718-.1115 1.6025.216.465.681.7011.4713.2495 1.213.2118.4204-.0338 2.3962-.3703 2.8522-.5013 4.0557-.5355 1.2036-.0342 2.1575.524.9539.5582 1.5217 1.7804.5554 1.1956.3487 2.5758t-1.2535 2.569-2.7073 1.9605q-2.75 1.2776-4.7221.8048-1.9722-.4728-3.4138-2.5328zm23.7-11.91 2.58-.9385q.5113 2.4197-.442 4.3864-.9534 1.9667-3.3671 3.1986-3.0402 1.5515-5.7767.5882-2.7365-.9634-4.4612-4.3427-1.7846-3.4967-.9695-6.3467.815-2.85 3.6855-4.315 2.7791-1.4182 5.5061-.4253 2.727.993 4.4782 4.4244.1066.2087.3066.633l-10.334 5.2737q1.2958 2.2167 3.0763 2.8375 1.7805.6208 3.5158-.2648 1.2917-.6593 1.8588-1.8038.567-1.1446.343-2.905zm-9.6488.1386 7.7372-3.9487q-1.0489-1.6685-2.2257-2.1698-1.8146-.7843-3.6021.128-1.6179.8256-2.1677 2.4712-.5498 1.6456.2583 3.5191z"/>
 </switch>
</svg>
